<svg xmlns="http://www.w3.org/2000/svg" xmlns:svg="http://www.w3.org/2000/svg" xmlns:xlink="http://www.w3.org/1999/xlink" id="svg8" width="1010" height="1412.143" version="1.1" viewBox="0 0 267.229 373.63"><title id="title81241">Buildah Logo</title><defs id="defs2"><linearGradient id="linearGradient5241"><stop style="stop-color:#000;stop-opacity:1" id="stop5237" offset="0"/><stop style="stop-color:#666;stop-opacity:1" id="stop5239" offset="1"/></linearGradient><marker id="marker5584" orient="auto" refX="0" refY="0" style="overflow:visible"><path id="path5582" d="M 0,-7.0710768 -7.0710894,0 0,7.0710589 7.0710462,0 Z" transform="scale(0.2)" style="fill:#4d4d4d;fill-opacity:1;fill-rule:evenodd;stroke:#4d4d4d;stroke-width:1.00000003pt;stroke-opacity:1"/></marker><marker id="DiamondS" orient="auto" refX="0" refY="0" style="overflow:visible"><path id="path5359" d="M 0,-7.0710768 -7.0710894,0 0,7.0710589 7.0710462,0 Z" transform="scale(0.2)" style="fill:#4d4d4d;fill-opacity:1;fill-rule:evenodd;stroke:#4d4d4d;stroke-width:1.00000003pt;stroke-opacity:1"/></marker><marker id="DotL" orient="auto" refX="0" refY="0" style="overflow:visible"><path id="path5335" d="m -2.5,-1 c 0,2.76 -2.24,5 -5,5 -2.76,0 -5,-2.24 -5,-5 0,-2.76 2.24,-5 5,-5 2.76,0 5,2.24 5,5 z" transform="matrix(0.8,0,0,0.8,5.92,0.8)" style="fill:#4d4d4d;fill-opacity:1;fill-rule:evenodd;stroke:#4d4d4d;stroke-width:1.00000003pt;stroke-opacity:1"/></marker><linearGradient id="linearGradient5243" x1="732.846" x2="732.846" y1="-159.449" y2="-60.495" gradientUnits="userSpaceOnUse" xlink:href="#linearGradient5241"/></defs><metadata id="metadata5"/><g id="layer1" transform="translate(-619.60435,199.89276)"><g id="g164054" transform="translate(-1.0583333,-251.19926)"><g style="fill:none;stroke:#000" id="g163990" transform="translate(-118.1493,-10.074071)"><path id="path164069" d="m 796.57913,145.63255 -19.29817,-9.23285 -4.82036,-20.8616 13.2871,-16.780616 21.38926,-0.06408 13.38485,16.701146 -4.69887,20.8897 z" style="opacity:1;fill:#c9c8c6;fill-opacity:1;stroke:#000;stroke-width:1.0583334;stroke-linecap:round;stroke-linejoin:round;stroke-miterlimit:4;stroke-dasharray:none;stroke-opacity:1"/><path style="fill:#fff;fill-opacity:1;stroke:none;stroke-width:2.99999976;stroke-linecap:round;stroke-linejoin:round;stroke-miterlimit:4;stroke-dasharray:none;stroke-dashoffset:5.99999952" id="path164067" d="m 185.87625,59.397934 c -0.86973,0.217518 -2.57155,-0.134058 -2.52494,1.185647 0.29798,1.534184 0.51469,3.25265 -0.0756,4.733265 -2.59999,1.640261 -6.20252,6.520936 -9.25204,6.909269 l 43.94309,20.562507 42.71289,-19.994542 c 1.02895,-0.723043 2.47728,0.557072 1.54478,0.673163 -3.35476,-0.649977 -5.60495,-3.545794 -7.89139,-5.779104 -1.32714,-1.221465 -1.85144,-3.043527 -1.61413,-4.807152 -0.0512,-1.079531 1.14073,-2.378109 0.11981,-3.2134 -1.25435,-0.06792 -2.90233,-0.67841 -3.75435,0.61017 -3.09923,3.191828 -7.98829,4.311297 -12.1138,2.887779 -1.55682,-0.854291 -3.06748,0.550296 -4.47291,1.067862 -6.87259,3.170321 -14.6714,4.278483 -21.96511,2.268758 -3.27701,-0.820909 -6.47851,-1.975772 -9.37028,-3.683317 -1.34887,-0.137072 -2.59577,0.774552 -3.96402,0.837618 -3.77142,0.600908 -7.75015,-0.913634 -10.36088,-3.74839 -0.24699,-0.267363 -0.5888,-0.503792 -0.96111,-0.510133 z m 32.50205,15.39649 c 1.43219,-0.301225 0.54304,1.655686 0.79688,2.500732 0.0233,4.281784 0.0465,8.563566 0.0697,12.845351 -1.3554,0.293932 -1.91251,-0.210418 -1.5934,-1.590991 v -13.77926 c 0.24226,0.0081 0.48452,0.01611 0.72678,0.02417 z" transform="matrix(0.26458333,0,0,0.26458333,738.81198,118.53055)"/><path style="fill:#fff;fill-opacity:1;stroke:none;stroke-width:.79374993;stroke-linecap:round;stroke-linejoin:round;stroke-miterlimit:4;stroke-dasharray:none;stroke-dashoffset:5.99999952" id="path164056" d="m 799.53748,117.44571 c -0.14618,0.005 -0.2976,0.0274 -0.42892,0.009 -2.03273,0.0428 -4.06359,0.0892 -6.0942,0.031 -0.28926,0.11428 -0.24836,0.50228 -0.35967,0.75138 -0.22736,0.98319 -0.0226,1.99923 0.0233,2.99155 0.07,0.84001 0.14093,1.67976 0.21136,2.51974 -1.27629,1.32719 -2.44789,2.78357 -3.30058,4.42195 -0.45703,0.87705 -0.62335,1.88496 -0.49712,2.86391 0.0203,0.83713 0.14089,1.79437 -0.44494,2.48357 -0.2045,0.17656 -0.15243,0.47737 0.0667,0.6134 0.61884,0.5474 1.48745,0.80041 2.29805,0.60306 0.99978,-0.16365 1.63821,-1.03284 2.31768,-1.6955 0.15864,-0.2272 0.63711,-0.45408 0.38551,-0.76998 -0.7675,-1.08459 -1.32972,-2.44507 -1.0697,-3.79098 0.12353,-0.6101 0.64173,-1.02068 1.16892,-1.28675 0.28556,-0.28377 -0.2066,-0.53663 -0.23823,-0.83509 0.0848,-0.56057 0.18974,-1.14181 0.44597,-1.65209 0.25811,-0.42031 0.80937,-0.32417 1.21078,-0.48731 0.63192,-0.22035 1.33566,-0.35672 1.98024,-0.10284 0.44879,0.16718 0.94179,0.19308 1.38079,0.37569 0.40792,0.36381 0.44788,0.95927 0.5917,1.45728 0.0844,0.26471 0.0795,0.56128 -0.12093,0.77463 -0.15859,0.17909 -0.12732,0.47628 0.12661,0.54311 0.63811,0.32204 1.10695,0.97435 1.09296,1.70481 0.0246,1.20969 -0.45512,2.37707 -1.16789,3.33726 -0.10802,0.32476 0.32009,0.49853 0.46974,0.73794 0.65863,0.70094 1.34012,1.50616 2.33267,1.70584 0.88352,0.181 1.86515,-0.13458 2.46135,-0.80718 0.0949,-0.27388 -0.28759,-0.40886 -0.36122,-0.65371 -0.42704,-0.7126 -0.29638,-1.55962 -0.2806,-2.34869 0.15195,-1.12447 -0.16703,-2.25995 -0.74207,-3.22358 -0.84528,-1.44611 -1.89414,-2.76858 -3.0608,-3.96823 0.10988,-1.60331 0.32998,-3.20245 0.33383,-4.81108 -0.019,-0.47827 -0.13757,-0.95613 -0.33435,-1.39061 -0.10996,-0.0918 -0.25069,-0.10579 -0.39687,-0.10129 z m -0.81339,15.38149 c -0.0464,-0.003 -0.0974,0.0351 -0.14366,0.0372 -0.54357,0.44869 -1.198,0.81023 -1.92236,0.80047 -0.71698,0.0539 -1.45907,-0.0997 -2.0345,-0.54881 -0.19522,-0.13527 -0.4874,-0.43793 -0.68678,-0.14831 -0.47322,0.53276 -0.98364,1.03938 -1.4764,1.54771 -0.15575,0.31923 0.32053,0.38287 0.51935,0.50023 1.12198,0.45684 2.32628,0.77692 3.54397,0.77773 1.30395,-0.0584 2.61944,-0.35107 3.78271,-0.9524 0.27683,-0.2308 -0.0777,-0.51977 -0.23306,-0.70125 -0.43157,-0.4316 -0.83203,-0.91444 -1.30431,-1.29242 -0.0141,-0.0134 -0.0295,-0.019 -0.045,-0.0202 z"/></g><path style="fill:#fde385;fill-opacity:1;stroke:none;stroke-width:.26458332px;stroke-linecap:butt;stroke-linejoin:miter;stroke-opacity:1" id="path163992" d="m 669.39724,96.367584 1.02899,-1.957235 15.43482,-0.460526 1.59025,2.993416 -2.61924,6.332231 -5.42557,0.80592 -3.92887,0.34539 -4.20949,-2.76315 z"/><path style="fill:#fde385;fill-opacity:1;stroke:#fcc917;stroke-width:.79374999;stroke-linecap:square;stroke-linejoin:miter;stroke-miterlimit:4;stroke-dasharray:none;stroke-dashoffset:0;stroke-opacity:1" id="path163994" d="m 668.72873,96.705238 c 1.29471,-1.620631 2.29404,-2.396806 3.34528,-2.88108 l 0.51322,0.669933 m 14.83217,1.608651 c -1.2947,-1.620635 -2.15245,-2.246185 -3.06212,-2.579834 l -0.52526,0.706599"/><path style="fill:#ccc;fill-opacity:1;stroke:none;stroke-width:.79374999;stroke-linecap:square;stroke-linejoin:miter;stroke-miterlimit:4;stroke-dasharray:none;stroke-dashoffset:0;stroke-opacity:1" id="path163996" d="m 677.98853,116.49938 c -0.34914,-0.002 -0.69863,0.044 -1.03586,0.14075 -2.10393,0.68594 -2.93218,1.30639 -2.55731,3.44971 0.43873,2.20092 2.18697,4.04843 3.96734,3.90808 1.78019,0.13991 3.5281,-1.70739 3.96677,-3.90808 0.37487,-2.14332 -0.45337,-2.76377 -2.5573,-3.44971 -0.33722,-0.0967 -0.68672,-0.14308 -1.03586,-0.14075 -0.12482,0.001 -0.24946,0.0116 -0.37361,0.0253 -0.12433,-0.014 -0.24916,-0.0242 -0.37417,-0.0253 z"/><path style="fill:gray;fill-opacity:1;stroke:#000;stroke-width:.79374999;stroke-linecap:square;stroke-linejoin:miter;stroke-miterlimit:4;stroke-dasharray:none;stroke-dashoffset:0;stroke-opacity:1" id="path163998" d="m 682.08117,113.78901 c 0.91986,0.9492 1.75512,1.98035 2.49266,3.07724 0.68351,1.01654 1.29935,2.144 1.34344,3.36817 0.0249,0.69116 -0.135,1.38133 -0.0846,2.07111 0.0252,0.34488 0.10516,0.69066 0.27705,0.99072 0.17189,0.30006 0.44194,0.55171 0.77047,0.65966 0.22103,0.0726 0.46179,0.0784 0.68921,0.0293 0.22741,-0.0491 0.44164,-0.15193 0.6304,-0.28796 0.37751,-0.27205 0.64758,-0.66865 0.86173,-1.08176 0.52388,-1.01062 0.75221,-2.15202 0.83092,-3.28763 0.0787,-1.13561 0.0138,-2.27549 -0.0167,-3.41341 -0.0193,-0.72156 -0.0232,-1.45577 0.17755,-2.14911 0.23128,-0.79874 0.71878,-1.49341 1.15186,-2.20328 0.43309,-0.70988 0.82802,-1.48546 0.83801,-2.31695 0.007,-0.57479 -0.1711,-1.13308 -0.31075,-1.69069 -0.13965,-0.55761 -0.24144,-1.14927 -0.0841,-1.70214 0.10561,-0.371 0.32101,-0.69904 0.51086,-1.03483 0.95093,-1.68188 1.29523,-3.68638 1.02955,-5.600118 -0.26569,-1.91374 -1.12956,-3.730164 -2.39332,-5.191636 -0.0591,-0.06838 -0.11962,-0.136493 -0.19144,-0.191396 -0.0718,-0.0549 -0.15638,-0.09637 -0.24644,-0.104263 -0.0833,-0.0073 -0.16782,0.01471 -0.24093,0.05531 -0.0731,0.0406 -0.13525,0.09915 -0.18648,0.165253 -0.10245,0.132201 -0.16121,0.291958 -0.22941,0.444673 -0.34883,0.781052 -0.96388,1.408741 -1.59109,1.990395 -0.62722,0.581655 -1.28716,1.144393 -1.76597,1.853243 -0.51192,0.757873 -0.79212,1.647778 -0.99797,2.538874 -0.20585,0.8911 -0.34453,1.79879 -0.60719,2.67483 -0.0931,0.31033 -0.2015,0.61605 -0.32481,0.91564 -0.83771,-0.13943 -1.68628,-0.21352 -2.53548,-0.22138 -0.92151,-0.009 -1.84374,0.0609 -2.75357,0.20747 0.83081,0.40874 1.56474,1.01281 2.12562,1.74951 0.68638,0.90154 1.10965,2.00099 1.20503,3.13006 z"/><path style="fill:none;fill-opacity:1;stroke:#000;stroke-width:.79374999;stroke-linecap:butt;stroke-linejoin:miter;stroke-miterlimit:4;stroke-dasharray:none;stroke-opacity:1" id="path164002" d="m 665.98766,127.54111 c 1.45053,0.14024 2.01604,-0.91633 2.5656,-1.36858 1.09913,-0.90452 0.1113,-1.91988 0.23409,-2.39785"/><path id="path164004" d="m 656.79097,107.36883 6.8301,1.80907" style="fill:none;fill-opacity:1;stroke:#fff;stroke-width:.79374999;stroke-linecap:butt;stroke-linejoin:miter;stroke-miterlimit:4;stroke-dasharray:none;stroke-opacity:1"/><path id="path164006" d="m 674.60667,113.78901 c -0.91986,0.9492 -1.75512,1.98035 -2.49266,3.07724 -0.68351,1.01654 -1.29935,2.14401 -1.34344,3.36818 -0.0249,0.69116 0.135,1.38133 0.0846,2.0711 -0.0252,0.34489 -0.10516,0.69066 -0.27704,0.99072 -0.17189,0.30007 -0.44195,0.55171 -0.77047,0.65966 -0.22103,0.0726 -0.46179,0.0784 -0.68921,0.0293 -0.22741,-0.0491 -0.44164,-0.15193 -0.6304,-0.28796 -0.37751,-0.27205 -0.64758,-0.66865 -0.86173,-1.08176 -0.52388,-1.01062 -0.75221,-2.15202 -0.83092,-3.28763 -0.0787,-1.13561 -0.0138,-2.27549 0.0167,-3.41341 0.0193,-0.72156 0.0232,-1.45577 -0.17755,-2.14911 -0.23128,-0.79874 -0.71878,-1.49341 -1.15186,-2.20328 -0.43309,-0.70988 -0.82802,-1.48546 -0.83801,-2.31695 -0.007,-0.57479 0.1711,-1.13308 0.31075,-1.69069 0.13965,-0.55761 0.24144,-1.14927 0.0841,-1.70214 -0.10561,-0.371 -0.32101,-0.69904 -0.51086,-1.03483 -0.95093,-1.68188 -1.29523,-3.68638 -1.02955,-5.600118 0.26569,-1.91374 1.12956,-3.730164 2.39332,-5.191636 0.0591,-0.06838 0.11962,-0.136493 0.19144,-0.191396 0.0718,-0.0549 0.15638,-0.09637 0.24644,-0.104263 0.0833,-0.0073 0.16782,0.01471 0.24093,0.05531 0.0731,0.0406 0.13525,0.09915 0.18648,0.165253 0.10245,0.132201 0.16121,0.291958 0.22941,0.444673 0.34883,0.781052 0.96388,1.408741 1.59109,1.990395 0.62722,0.581655 1.28716,1.144393 1.76597,1.853243 0.51192,0.757873 0.79212,1.647778 0.99797,2.538874 0.20585,0.8911 0.34453,1.79879 0.60719,2.67483 0.093,0.31033 0.2015,0.61605 0.32481,0.91564 0.83771,-0.13943 1.68628,-0.21352 2.53548,-0.22138 0.92151,-0.009 1.84374,0.0609 2.75357,0.20747 -0.83081,0.40874 -1.56474,1.01281 -2.12562,1.74951 -0.68638,0.90154 -1.10965,2.00099 -1.20503,3.13006 z" style="fill:gray;fill-opacity:1;stroke:#000;stroke-width:.79374999;stroke-linecap:square;stroke-linejoin:miter;stroke-miterlimit:4;stroke-dasharray:none;stroke-dashoffset:0;stroke-opacity:1"/><ellipse id="ellipse164008" cx="-685.802" cy="112.941" rx="2.559" ry="2.632" transform="scale(-1,1)" style="fill:#000;fill-opacity:1;stroke:#fc0;stroke-width:.79375005;stroke-linecap:square;stroke-linejoin:miter;stroke-miterlimit:4;stroke-dasharray:none;stroke-dashoffset:0;stroke-opacity:1"/><path id="path164010" d="m 688.09564,109.52895 c -0.51006,-0.66669 -1.32419,-1.09079 -2.16284,-1.12668 -0.79156,-0.0339 -1.5919,0.27667 -2.15345,0.83557" style="fill:none;fill-opacity:1;stroke:#000;stroke-width:.79374993;stroke-linecap:square;stroke-linejoin:miter;stroke-miterlimit:4;stroke-dasharray:none;stroke-dashoffset:0;stroke-opacity:1"/><path style="fill:none;fill-opacity:1;stroke:#000;stroke-width:.79374999;stroke-linecap:square;stroke-linejoin:miter;stroke-miterlimit:4;stroke-dasharray:none;stroke-dashoffset:0;stroke-opacity:1" id="path164012" d="m 688.35038,105.60417 c -0.34291,-0.021 -0.67986,-0.13271 -0.96738,-0.32076 -0.28752,-0.18805 -0.52493,-0.45197 -0.68159,-0.75773 -0.22615,-0.44137 -0.27968,-0.95782 -0.21342,-1.4493 0.0663,-0.49149 0.24657,-0.96132 0.46711,-1.40551 0.52564,-1.05872 1.29001,-1.998073 2.21979,-2.727944"/><path id="path164014" d="m 678.17919,117.2974 0.0935,1.83339 c 0.019,0.37335 0.03,0.75093 -0.0438,1.11741 -0.0738,0.36648 -0.23099,0.71566 -0.4563,1.01397 -0.22531,0.29831 -0.51338,0.54373 -0.81663,0.76235 -0.30325,0.21862 -0.62323,0.41457 -0.91332,0.65037 -0.3976,0.3232 -0.73099,0.71664 -1.07802,1.09362 -0.34704,0.37698 -0.71589,0.74422 -1.16161,0.99696 -0.58472,0.33156 -1.28881,0.44708 -1.94883,0.31976 -0.66001,-0.12733 -1.2706,-0.49647 -1.69003,-1.02174" style="fill:none;fill-opacity:1;stroke:#000;stroke-width:.79374999;stroke-linecap:square;stroke-linejoin:miter;stroke-miterlimit:4;stroke-dasharray:none;stroke-dashoffset:0;stroke-opacity:1"/><path style="fill:gray;fill-opacity:1;stroke:#000;stroke-width:.79374999;stroke-linecap:square;stroke-linejoin:miter;stroke-miterlimit:4;stroke-dasharray:none;stroke-dashoffset:0;stroke-opacity:1" id="path164016" d="m 680.97887,116.32503 c -0.20725,-0.54651 -0.20725,-1.63953 -0.82897,-1.63953 -0.62171,0 -1.19648,-0.40988 -1.808,-0.40988 -0.61152,0 -1.18629,0.40988 -1.80801,0.40988 -0.62172,0 -0.62172,1.09302 -0.82896,1.63953 -0.20725,0.54651 2.63697,2.32265 2.63697,2.32265 0,0 2.84421,-1.77614 2.63697,-2.32265 z"/><ellipse style="fill:#000;fill-opacity:1;stroke:#fc0;stroke-width:.79375005;stroke-linecap:square;stroke-linejoin:miter;stroke-miterlimit:4;stroke-dasharray:none;stroke-dashoffset:0;stroke-opacity:1" id="ellipse164018" cx="670.975" cy="112.941" rx="2.559" ry="2.632"/><ellipse id="ellipse164020" cx="670.121" cy="112.201" rx="1.258" ry="1.311" style="fill:#fff;fill-opacity:1;stroke:none;stroke-width:.79375005;stroke-linecap:square;stroke-linejoin:miter;stroke-miterlimit:4;stroke-dasharray:none;stroke-dashoffset:0;stroke-opacity:1"/><path style="fill:none;fill-opacity:1;stroke:#000;stroke-width:.79374993;stroke-linecap:square;stroke-linejoin:miter;stroke-miterlimit:4;stroke-dasharray:none;stroke-dashoffset:0;stroke-opacity:1" id="path164022" d="m 668.68054,109.52895 c 0.51006,-0.66669 1.32419,-1.09079 2.16284,-1.12668 0.79156,-0.0339 1.5919,0.27667 2.15345,0.83557"/><path id="path164024" d="m 667.89668,105.60417 c 0.34291,-0.021 0.67986,-0.13271 0.96738,-0.32076 0.28752,-0.18805 0.52493,-0.45197 0.68159,-0.75773 0.22615,-0.44137 0.27968,-0.95782 0.21342,-1.4493 -0.0663,-0.49149 -0.24657,-0.96132 -0.46711,-1.40551 -0.52564,-1.05872 -1.29001,-1.998073 -2.21979,-2.727944" style="fill:none;fill-opacity:1;stroke:#000;stroke-width:.79374999;stroke-linecap:square;stroke-linejoin:miter;stroke-miterlimit:4;stroke-dasharray:none;stroke-dashoffset:0;stroke-opacity:1"/><path id="path164026" d="m 678.45158,127.93405 v 3.63912" style="fill:none;fill-opacity:1;stroke:#000;stroke-width:.79375005;stroke-linecap:square;stroke-linejoin:miter;stroke-miterlimit:4;stroke-dasharray:none;stroke-dashoffset:0;stroke-opacity:1"/><path id="path164028" d="m 671.55002,100.46623 c 0,0 -2.51266,1.87089 -3.38243,2.15152 -0.86976,0.28063 -4.44548,0.74835 -4.44548,0.74835 l 0.0966,2.80633 c 0,0 1.54625,0.28064 3.28579,-0.0935 1.73954,-0.37418 14.20621,-0.46772 14.20621,-0.46772" style="fill:#fde385;fill-opacity:1;stroke:#fcc917;stroke-width:.79374993;stroke-linecap:square;stroke-linejoin:miter;stroke-miterlimit:4;stroke-dasharray:none;stroke-dashoffset:0;stroke-opacity:1"/><path style="fill:none;fill-opacity:1;stroke:#fff;stroke-width:.79374999;stroke-linecap:butt;stroke-linejoin:miter;stroke-miterlimit:4;stroke-dasharray:none;stroke-opacity:1" id="path164030" d="m 700.13359,107.36883 -6.8301,1.80907"/><path style="fill:none;fill-opacity:1;stroke:#000;stroke-width:.79374999;stroke-linecap:square;stroke-linejoin:miter;stroke-miterlimit:4;stroke-dasharray:none;stroke-dashoffset:0;stroke-opacity:1" id="path164032" d="m 682.85977,124.87214 c -2.21493,1.35318 -4.81675,1.26558 -4.4536,1.26558 0.36315,0 -2.23867,0.0876 -4.4536,-1.26558"/><path id="path164034" d="m 690.79253,127.7282 c -1.45053,0.14024 -2.01604,-0.91633 -2.5656,-1.36858 -1.09913,-0.90452 -0.1113,-1.91988 -0.23409,-2.39785" style="fill:none;fill-opacity:1;stroke:#000;stroke-width:.79374999;stroke-linecap:butt;stroke-linejoin:miter;stroke-miterlimit:4;stroke-dasharray:none;stroke-opacity:1"/><path id="path164036" d="m 660.77576,124.86583 4.67858,-3.21224" style="fill:none;fill-opacity:1;stroke:#fff;stroke-width:.79374999;stroke-linecap:butt;stroke-linejoin:miter;stroke-miterlimit:4;stroke-dasharray:none;stroke-opacity:1"/><ellipse style="fill:#fff;fill-opacity:1;stroke:none;stroke-width:.79375005;stroke-linecap:square;stroke-linejoin:miter;stroke-miterlimit:4;stroke-dasharray:none;stroke-dashoffset:0;stroke-opacity:1" id="ellipse164038" cx="686.581" cy="112.201" rx="1.258" ry="1.311"/><path id="path164040" d="m 677.59167,116.05505 -0.52917,1.25677" style="fill:none;fill-opacity:1;stroke:#000;stroke-width:.79374999;stroke-linecap:square;stroke-linejoin:miter;stroke-miterlimit:4;stroke-dasharray:none;stroke-dashoffset:0;stroke-opacity:1"/><path style="fill:none;fill-opacity:1;stroke:#000;stroke-width:.79374999;stroke-linecap:square;stroke-linejoin:miter;stroke-miterlimit:4;stroke-dasharray:none;stroke-dashoffset:0;stroke-opacity:1" id="path164042" d="m 679.17915,116.05505 0.52917,1.25677"/><path style="fill:none;fill-opacity:1;stroke:#fff;stroke-width:.79374999;stroke-linecap:butt;stroke-linejoin:miter;stroke-miterlimit:4;stroke-dasharray:none;stroke-opacity:1" id="path164044" d="m 695.61685,124.86583 -4.67858,-3.21224"/><path style="fill:#fde385;fill-opacity:1;stroke:#fcc917;stroke-width:.79374993;stroke-linecap:square;stroke-linejoin:miter;stroke-miterlimit:4;stroke-dasharray:none;stroke-dashoffset:0;stroke-opacity:1" id="path164046" d="m 685.11528,100.46623 c 0,0 2.51266,1.87089 3.38243,2.15152 0.86976,0.28063 4.44548,0.74835 4.44548,0.74835 l -0.0966,2.80633 c 0,0 -1.54625,0.28064 -3.28579,-0.0935 -1.73954,-0.37418 -14.20621,-0.46772 -14.20621,-0.46772"/><path id="path164048" d="m 685.05575,107.26614 5.96227,-0.7956 -9.18023,-1.59078 -8.88926,0.0497 -6.9128,1.24282 3.69017,1.09388 7.66492,0.19883 z" style="fill:#fde385;fill-opacity:1;stroke:#fcc917;stroke-width:.79374999;stroke-linecap:square;stroke-linejoin:miter;stroke-miterlimit:4;stroke-dasharray:none;stroke-dashoffset:0;stroke-opacity:1"/><path id="path164050" d="m 676.81873,99.653466 -2.18282,-0.0661 -1.91823,-2.38125 0.0661,-2.910414 3.16158,-0.842507 c 1.69501,-0.584128 3.19616,-0.406767 4.77192,0 2.72967,0.795783 3.24708,0.842507 3.24708,0.842507 l 0.0661,2.910414 -1.91823,2.38125 -2.18282,0.0661" style="fill:#fcda5d;fill-opacity:1;fill-rule:evenodd;stroke:#fcc917;stroke-width:.79374999;stroke-linecap:butt;stroke-linejoin:miter;stroke-miterlimit:4;stroke-dasharray:none;stroke-opacity:1"/><path style="fill:#fde385;fill-opacity:1;fill-rule:evenodd;stroke:#fcc917;stroke-width:.79374999;stroke-linecap:butt;stroke-linejoin:miter;stroke-miterlimit:4;stroke-dasharray:none;stroke-opacity:1" id="path164052" d="m 681.51475,97.860416 0.46611,-5.424686 -3.46306,-0.577161 -3.46269,0.577161 0.46575,5.424686 2.99695,3.704164 z"/><path style="fill:none;fill-opacity:1;stroke:#000;stroke-width:.79374999;stroke-linecap:square;stroke-linejoin:miter;stroke-miterlimit:4;stroke-dasharray:none;stroke-dashoffset:0;stroke-opacity:1" id="path164000" d="m 678.57794,117.2974 -0.0935,1.83339 c -0.019,0.37335 -0.03,0.75093 0.0438,1.11741 0.0738,0.36648 0.23099,0.71566 0.4563,1.01397 0.22531,0.29831 0.51338,0.54373 0.81663,0.76235 0.30325,0.21862 0.62323,0.41457 0.91332,0.65037 0.3976,0.3232 0.73099,0.71664 1.07802,1.09362 0.34704,0.37698 0.71589,0.74422 1.16161,0.99696 0.58472,0.33156 1.28881,0.44708 1.94883,0.31976 0.66001,-0.12733 1.2706,-0.49647 1.69003,-1.02174"/></g><rect id="rect5042" width="266.435" height="119.894" x="620.001" y="-173.34" ry=".261" transform="scale(1,-1)" style="opacity:1;fill:url(#linearGradient5243);fill-opacity:1;stroke:#dedede;stroke-width:.79374993;stroke-linecap:round;stroke-linejoin:round;stroke-miterlimit:4;stroke-dasharray:none;stroke-opacity:1"/><text style="font-style:normal;font-weight:400;font-size:37.59195328px;line-height:22.55517006px;font-family:sans-serif;letter-spacing:0;word-spacing:0;fill:#3c6eb4;fill-opacity:1;stroke:none;stroke-width:.26458332px;stroke-linecap:butt;stroke-linejoin:miter;stroke-opacity:1" id="text872" x="711.802" y="124.854" xml:space="preserve"><tspan id="tspan870" x="711.802" y="124.854" dx="0 0 0 0" style="font-style:normal;font-variant:normal;font-weight:400;font-stretch:normal;font-family:Montserrat;-inkscape-font-specification:Montserrat;fill:#3c6eb4;fill-opacity:1;stroke-width:.26458332px"><tspan id="tspan866" style="fill:#fff;stroke-width:.26458332px">build</tspan><tspan style="fill:#fc0" id="tspan4805">ah</tspan></tspan></text><rect id="rect1518" width="72.777" height="92.609" x="343.461" y="-18.59" style="opacity:1;fill:#fff;fill-opacity:1;stroke:none;stroke-width:.79374999;stroke-miterlimit:4;stroke-dasharray:none"/><path id="path1491" d="m 380.68538,11.893462 c 0,0 9.26041,-3.3072896 12.30312,-3.7041696 3.04271,-0.39687 11.37709,2.2489596 11.37709,2.2489596 l 4.49791,7.40833 c 0,0 0.79375,11.24479 0.66146,12.7 -0.13229,1.45521 -2.51354,8.99584 -1.71979,10.45104 0.79375,1.45521 1.05833,11.2448 1.05833,11.2448 0,0 2.11667,3.30729 2.11667,4.10104 0,0.79375 -0.66146,2.57969 -1.98438,2.97656 -1.32291,0.39688 -3.83645,0 -3.83645,0 0,0 -1.7198,-2.3151 -0.92605,-5.22552 0.79375,-2.91042 0.92605,-5.29167 0.79376,-5.95313 -0.13229,-0.66145 -1.71979,-11.90625 -1.85209,-12.43541 -0.13229,-0.52917 -2.77812,-1.85208 -3.175,-2.38125 -0.39687,-0.52917 -5.68854,-5.15937 -5.68854,-5.15937 0,0 -1.5875,4.10104 -2.24896,4.49791 -0.66146,0.39688 -3.43958,2.38125 -3.43958,2.38125 0,0 -1.50186,3.01265 -2.53085,3.1062 -1.02899,0.0935 -2.89987,-0.65481 -2.89987,-0.65481 l -2.05798,-0.52091 -3.18051,-13.18975 0.28064,-7.95127 z" style="fill:gray;fill-opacity:1;stroke:#000;stroke-width:.79374999;stroke-linecap:butt;stroke-linejoin:miter;stroke-miterlimit:4;stroke-dasharray:none;stroke-opacity:1"/><path style="fill:#fff;fill-opacity:1;stroke:#000;stroke-width:.79374999;stroke-linecap:butt;stroke-linejoin:miter;stroke-miterlimit:4;stroke-dasharray:none;stroke-opacity:1" id="path5177" d="m 359.53003,20.313802 c -0.12279,0.47797 0.86504,1.49333 -0.23409,2.39785 -2.46316,1.66439 -2.97507,2.37084 -4.01053,5.98286 -0.20307,5.23646 0.50134,8.87274 1.78594,10.78177 2.05229,3.9521 -0.6819,3.2593 0.99219,6.54844 0.52916,0.66146 3.9026,8.53282 4.16719,9.19427 0.26458,0.66146 0.59531,2.57969 0.19843,3.10885 -0.39687,0.52917 -2.77812,4.63021 -2.77812,4.63021 0,0 -1.5875,1.05834 -1.32292,2.38125 0.26458,1.32292 0.92604,2.31511 0.92604,2.31511 h 3.96875 c 0,0 3.57188,-2.71198 3.57188,-3.24115 0,-0.52917 -0.66146,-3.30729 -0.66146,-3.30729 l -0.46301,-4.36563 c 2.01397,-13.42842 0.50081,-10.95336 -0.33074,-12.83229 l 0.52917,-1.98437 3.55411,1.5875 3.02494,-1.5875 0.52917,1.98437 c -0.83155,1.87893 -2.34471,-0.59613 -0.33074,12.83229 l -0.46301,4.36563 c 0,0 -0.66146,2.77812 -0.66146,3.30729 0,0.52917 3.57188,3.24115 3.57188,3.24115 h 3.96875 c 0,0 0.66146,-0.99219 0.92604,-2.31511 0.26458,-1.32291 -1.32292,-2.38125 -1.32292,-2.38125 0,0 -2.38125,-4.10104 -2.77812,-4.63021 -0.39688,-0.52916 -0.0661,-2.44739 0.19843,-3.10885 0.26459,-0.66145 3.63803,-8.53281 4.16719,-9.19427 1.67409,-3.28914 -1.0601,-2.59634 0.99219,-6.54844 1.2846,-1.90903 1.98901,-5.54531 1.78594,-10.78177 -1.03546,-3.61202 -1.54737,-4.31847 -4.01053,-5.98286 -1.09913,-0.90452 -0.1113,-1.91988 -0.23409,-2.39785"/><path style="fill:#ccc;fill-opacity:1;stroke:none;stroke-width:.79374999;stroke-linecap:square;stroke-linejoin:miter;stroke-miterlimit:4;stroke-dasharray:none;stroke-dashoffset:0;stroke-opacity:1" id="path5169" d="m 368.73121,13.038502 c -0.34914,-0.002 -0.69863,0.044 -1.03586,0.14075 -2.10393,0.68594 -2.93218,1.30639 -2.55731,3.44971 0.43873,2.20092 2.18697,4.04843 3.96734,3.90808 1.78019,0.13991 3.5281,-1.70739 3.96677,-3.90808 0.37487,-2.14332 -0.45337,-2.76377 -2.5573,-3.44971 -0.33722,-0.0967 -0.68672,-0.14308 -1.03586,-0.14075 -0.12482,0.001 -0.24946,0.0116 -0.37361,0.0253 -0.12433,-0.014 -0.24916,-0.0242 -0.37417,-0.0253 z"/><path style="fill:gray;fill-opacity:1;stroke:#000;stroke-width:.79374999;stroke-linecap:square;stroke-linejoin:miter;stroke-miterlimit:4;stroke-dasharray:none;stroke-dashoffset:0;stroke-opacity:1" id="path5171" d="m 372.82385,10.328142 c 0.91986,0.949198 1.75512,1.980345 2.49266,3.07723 0.68351,1.016538 1.29935,2.144009 1.34344,3.36818 0.0249,0.691162 -0.135,1.381331 -0.0846,2.071101 0.0252,0.344885 0.10516,0.690663 0.27704,0.990724 0.17189,0.30006 0.44195,0.551707 0.77047,0.659655 0.22103,0.07263 0.46179,0.0784 0.68921,0.02928 0.22741,-0.04912 0.44164,-0.151933 0.6304,-0.287958 0.37751,-0.27205 0.64758,-0.668649 0.86173,-1.081763 0.52388,-1.010617 0.75221,-2.152021 0.83092,-3.287629 0.0787,-1.135607 0.0138,-2.275487 -0.0167,-3.413411 -0.0193,-0.721555 -0.0232,-1.455766 0.17755,-2.1491 0.23128,-0.7987447 0.71878,-1.4934069 1.15186,-2.2032813 0.43309,-0.7098743 0.82802,-1.4854539 0.83801,-2.3169483 0.007,-0.5747903 -0.1711,-1.1330804 -0.31075,-1.6906912 -0.13965,-0.5576108 -0.24144,-1.1492717 -0.0841,-1.7021388 0.10561,-0.3710012 0.32101,-0.6990447 0.51086,-1.03483 0.95093,-1.68187974 1.29524,-3.6863801 1.02955,-5.6001207 -0.26569,-1.9137406 -1.12956,-3.730166 -2.39332,-5.1916383 -0.0591,-0.068382 -0.11962,-0.1364931 -0.19144,-0.1913962 -0.0718,-0.054903 -0.15638,-0.096366 -0.24644,-0.1042628 -0.0833,-0.0073 -0.16782,0.014711 -0.24093,0.055315 -0.0731,0.040604 -0.13525,0.099152 -0.18648,0.1652524 -0.10245,0.1322011 -0.16121,0.2919586 -0.22941,0.4446733 -0.34883,0.7810518 -0.96388,1.4087409 -1.59109,1.9903954 -0.62722,0.5816545 -1.28716,1.144393 -1.76597,1.8532426 -0.51192,0.757874 -0.79212,1.6477797 -0.99797,2.5388806 -0.20585,0.8911008 -0.34453,1.79879041 -0.60719,2.67482837 -0.0931,0.3103316 -0.2015,0.61604527 -0.32481,0.91564 -0.83771,-0.13942617 -1.68628,-0.21351766 -2.53548,-0.22138 -0.92151,-0.008532 -1.84374,0.0609538 -2.75357,0.20747 0.83081,0.40873943 1.56474,1.01280813 2.12562,1.74951003 0.68638,0.9015429 1.10965,2.0009911 1.20503,3.13006 z"/><path style="fill:none;fill-opacity:1;stroke:#000;stroke-width:.79374999;stroke-linecap:square;stroke-linejoin:miter;stroke-miterlimit:4;stroke-dasharray:none;stroke-dashoffset:0;stroke-opacity:1" id="path5173" d="m 369.32062,13.836522 -0.0935,1.83339 c -0.019,0.373351 -0.03,0.750935 0.0438,1.117412 0.0738,0.366477 0.23099,0.715653 0.4563,1.013964 0.22531,0.298311 0.51338,0.543732 0.81663,0.762351 0.30325,0.218619 0.62323,0.414571 0.91332,0.650373 0.3976,0.323198 0.73099,0.716638 1.07802,1.093618 0.34704,0.376981 0.71589,0.744223 1.16161,0.996962 0.58472,0.331557 1.28881,0.447081 1.94883,0.319756 0.66001,-0.127324 1.2706,-0.496466 1.69003,-1.021736"/><path id="path5175" d="m 360.32702,-6.4851386 c 2.35234,-2.846752 3.63135,-2.197639 6.36102,-2.993422 1.69501,-0.5841284 3.19616,-0.406767 4.77192,0 2.72967,0.795783 3.49419,0.14667 5.84653,2.993422" style="fill:none;fill-opacity:1;stroke:#fc0;stroke-width:.79374999;stroke-linecap:square;stroke-linejoin:miter;stroke-miterlimit:4;stroke-dasharray:none;stroke-dashoffset:0;stroke-opacity:1"/><path id="path5181" d="m 365.34935,10.328142 c -0.91986,0.949198 -1.75512,1.980345 -2.49266,3.07723 -0.68351,1.016538 -1.29935,2.144009 -1.34344,3.36818 -0.0249,0.691162 0.135,1.381331 0.0846,2.071101 -0.0252,0.344885 -0.10516,0.690663 -0.27704,0.990724 -0.17189,0.30006 -0.44195,0.551707 -0.77047,0.659655 -0.22103,0.07263 -0.46179,0.0784 -0.68921,0.02928 -0.22741,-0.04912 -0.44164,-0.151933 -0.6304,-0.287958 -0.37751,-0.27205 -0.64758,-0.668649 -0.86173,-1.081763 -0.52388,-1.010617 -0.75221,-2.152021 -0.83092,-3.287629 -0.0787,-1.135607 -0.0138,-2.275487 0.0167,-3.413411 0.0193,-0.721555 0.0232,-1.455766 -0.17755,-2.1491 -0.23128,-0.7987447 -0.71878,-1.4934069 -1.15186,-2.2032813 -0.43309,-0.7098743 -0.82802,-1.4854539 -0.83801,-2.3169483 -0.007,-0.5747903 0.1711,-1.1330804 0.31075,-1.6906912 0.13965,-0.5576108 0.24144,-1.1492717 0.0841,-1.7021388 -0.10561,-0.3710012 -0.32101,-0.6990447 -0.51086,-1.03483 -0.95093,-1.68187974 -1.29524,-3.6863801 -1.02955,-5.6001207 0.26569,-1.9137406 1.12956,-3.730166 2.39332,-5.1916383 0.0591,-0.068382 0.11962,-0.1364931 0.19144,-0.1913962 0.0718,-0.054903 0.15638,-0.096366 0.24644,-0.1042628 0.0833,-0.0073 0.16782,0.014711 0.24093,0.055315 0.0731,0.040604 0.13525,0.099152 0.18648,0.1652524 0.10245,0.1322011 0.16121,0.2919586 0.22941,0.4446733 0.34883,0.7810518 0.96388,1.4087409 1.59109,1.9903954 0.62722,0.5816545 1.28716,1.144393 1.76597,1.8532426 0.51192,0.757874 0.79212,1.6477797 0.99797,2.5388806 0.20585,0.8911008 0.34453,1.79879041 0.60719,2.67482837 0.0931,0.3103316 0.2015,0.61604527 0.32481,0.91564 0.83771,-0.13942617 1.68628,-0.21351766 2.53548,-0.22138 0.92151,-0.008532 1.84374,0.0609538 2.75357,0.20747 -0.83081,0.40873943 -1.56474,1.01280813 -2.12562,1.74951003 -0.68638,0.9015429 -1.10965,2.0009911 -1.20503,3.13006 z" style="fill:gray;fill-opacity:1;stroke:#000;stroke-width:.79374999;stroke-linecap:square;stroke-linejoin:miter;stroke-miterlimit:4;stroke-dasharray:none;stroke-dashoffset:0;stroke-opacity:1"/><ellipse id="ellipse5183" cx="-376.544" cy="9.481" rx="2.559" ry="2.632" transform="scale(-1,1)" style="fill:#000;fill-opacity:1;stroke:#fc0;stroke-width:.79375005;stroke-linecap:square;stroke-linejoin:miter;stroke-miterlimit:4;stroke-dasharray:none;stroke-dashoffset:0;stroke-opacity:1"/><path id="path5185" d="m 378.83832,6.0680824 c -0.51006,-0.6666855 -1.32419,-1.0907856 -2.16284,-1.12668 -0.79156,-0.033879 -1.5919,0.2766676 -2.15345,0.83557" style="fill:none;fill-opacity:1;stroke:#000;stroke-width:.79374993;stroke-linecap:square;stroke-linejoin:miter;stroke-miterlimit:4;stroke-dasharray:none;stroke-dashoffset:0;stroke-opacity:1"/><path style="fill:none;fill-opacity:1;stroke:#000;stroke-width:.79374999;stroke-linecap:square;stroke-linejoin:miter;stroke-miterlimit:4;stroke-dasharray:none;stroke-dashoffset:0;stroke-opacity:1" id="path5187" d="m 379.09306,2.1433024 c -0.34291,-0.020986 -0.67986,-0.1327106 -0.96738,-0.3207592 -0.28752,-0.1880486 -0.52493,-0.4519755 -0.68159,-0.7577308 -0.22615,-0.44136532 -0.27968,-0.95782174 -0.21342,-1.44930386 0.0663,-0.49148211 0.24657,-0.96131134 0.46711,-1.40550614 0.52564,-1.0587252 1.29001,-1.9980759 2.21979,-2.727949"/><path id="path5189" d="m 368.92187,13.836522 0.0935,1.83339 c 0.019,0.373351 0.03,0.750935 -0.0438,1.117412 -0.0738,0.366477 -0.23099,0.715653 -0.4563,1.013964 -0.22531,0.298311 -0.51338,0.543732 -0.81663,0.762351 -0.30325,0.218619 -0.62323,0.414571 -0.91332,0.650373 -0.3976,0.323198 -0.73099,0.716638 -1.07802,1.093618 -0.34704,0.376981 -0.71589,0.744223 -1.16161,0.996962 -0.58472,0.331557 -1.28881,0.447081 -1.94883,0.319756 -0.66001,-0.127324 -1.2706,-0.496466 -1.69003,-1.021736" style="fill:none;fill-opacity:1;stroke:#000;stroke-width:.79374999;stroke-linecap:square;stroke-linejoin:miter;stroke-miterlimit:4;stroke-dasharray:none;stroke-dashoffset:0;stroke-opacity:1"/><path style="fill:gray;fill-opacity:1;stroke:#000;stroke-width:.79374999;stroke-linecap:square;stroke-linejoin:miter;stroke-miterlimit:4;stroke-dasharray:none;stroke-dashoffset:0;stroke-opacity:1" id="path5191" d="m 371.72155,12.864152 c -0.20725,-0.5465 -0.20725,-1.63952 -0.82897,-1.63952 -0.62171,0 -1.19648,-0.40988 -1.808,-0.40988 -0.61152,0 -1.18629,0.40988 -1.80801,0.40988 -0.62172,0 -0.62172,1.09302 -0.82896,1.63952 -0.20725,0.54651 2.63697,2.32265 2.63697,2.32265 0,0 2.84421,-1.77614 2.63697,-2.32265 z"/><ellipse style="fill:#000;fill-opacity:1;stroke:#fc0;stroke-width:.79375005;stroke-linecap:square;stroke-linejoin:miter;stroke-miterlimit:4;stroke-dasharray:none;stroke-dashoffset:0;stroke-opacity:1" id="ellipse5193" cx="361.718" cy="9.481" rx="2.559" ry="2.632"/><ellipse id="ellipse5195" cx="360.864" cy="8.74" rx="1.258" ry="1.311" style="fill:#fff;fill-opacity:1;stroke:none;stroke-width:.79375005;stroke-linecap:square;stroke-linejoin:miter;stroke-miterlimit:4;stroke-dasharray:none;stroke-dashoffset:0;stroke-opacity:1"/><path style="fill:none;fill-opacity:1;stroke:#000;stroke-width:.79374993;stroke-linecap:square;stroke-linejoin:miter;stroke-miterlimit:4;stroke-dasharray:none;stroke-dashoffset:0;stroke-opacity:1" id="path5197" d="m 359.42322,6.0680824 c 0.51006,-0.6666855 1.32419,-1.0907856 2.16284,-1.12668 0.79156,-0.033879 1.5919,0.2766676 2.15345,0.83557"/><path id="path5199" d="m 358.63936,2.1433024 c 0.34291,-0.020986 0.67986,-0.1327106 0.96738,-0.3207592 0.28752,-0.1880486 0.52493,-0.4519755 0.68159,-0.7577308 0.22615,-0.44136532 0.27968,-0.95782174 0.21342,-1.44930386 -0.0663,-0.49148211 -0.24657,-0.96131134 -0.46711,-1.40550614 -0.52564,-1.0587252 -1.29001,-1.9980759 -2.21979,-2.727949" style="fill:none;fill-opacity:1;stroke:#000;stroke-width:.79374999;stroke-linecap:square;stroke-linejoin:miter;stroke-miterlimit:4;stroke-dasharray:none;stroke-dashoffset:0;stroke-opacity:1"/><path id="path5201" d="m 369.19426,25.002342 v 3.63911" style="fill:none;fill-opacity:1;stroke:#000;stroke-width:.79375005;stroke-linecap:square;stroke-linejoin:miter;stroke-miterlimit:4;stroke-dasharray:none;stroke-dashoffset:0;stroke-opacity:1"/><path style="fill:#fff;fill-opacity:1;stroke:#fc0;stroke-width:.71251804;stroke-linecap:square;stroke-linejoin:miter;stroke-miterlimit:4;stroke-dasharray:none;stroke-dashoffset:0;stroke-opacity:1" id="path5205" d="m 367.75159,-2.0301976 -1.94157,-8.1178874 c -1.60631,0.112464 -2.9533,0.6616554 -4.3916,1.2343824 l 3.82163,7.589445"/><path id="path5207" d="m 362.2927,-2.9946476 c 0,0 -2.51266,1.8709 -3.38243,2.15152997 -0.86976,0.28063 -4.44548,0.74835 -4.44548,0.74835 l 0.0966,2.80633003 c 0,0 1.54625,0.28064 3.28579,-0.0935 1.73954,-0.37418 14.20621,-0.46772 14.20621,-0.46772" style="fill:#fff;fill-opacity:1;stroke:#fc0;stroke-width:.79374993;stroke-linecap:square;stroke-linejoin:miter;stroke-miterlimit:4;stroke-dasharray:none;stroke-dashoffset:0;stroke-opacity:1"/><path style="fill:none;fill-opacity:1;stroke:#000;stroke-width:.79374999;stroke-linecap:square;stroke-linejoin:miter;stroke-miterlimit:4;stroke-dasharray:none;stroke-dashoffset:0;stroke-opacity:1" id="path5211" d="m 373.60245,21.411262 c -2.21493,1.35318 -4.81675,1.26558 -4.4536,1.26558 0.36315,0 -2.23867,0.0876 -4.4536,-1.26558"/><ellipse style="fill:#fff;fill-opacity:1;stroke:none;stroke-width:.79375005;stroke-linecap:square;stroke-linejoin:miter;stroke-miterlimit:4;stroke-dasharray:none;stroke-dashoffset:0;stroke-opacity:1" id="ellipse5221" cx="377.323" cy="8.74" rx="1.258" ry="1.311"/><path id="path5223" d="m 368.33435,12.594172 -0.52917,1.25677" style="fill:none;fill-opacity:1;stroke:#000;stroke-width:.79374999;stroke-linecap:square;stroke-linejoin:miter;stroke-miterlimit:4;stroke-dasharray:none;stroke-dashoffset:0;stroke-opacity:1"/><path style="fill:none;fill-opacity:1;stroke:#000;stroke-width:.79374999;stroke-linecap:square;stroke-linejoin:miter;stroke-miterlimit:4;stroke-dasharray:none;stroke-dashoffset:0;stroke-opacity:1" id="path5225" d="m 369.92183,12.594172 0.52917,1.25677"/><path id="path378" d="m 370.35946,-2.0302276 1.94157,-8.1178574 c 1.60631,0.112464 2.9533,0.6616554 4.3916,1.2343824 l -3.82163,7.589415" style="fill:#fff;fill-opacity:1;stroke:#fc0;stroke-width:.71251804;stroke-linecap:square;stroke-linejoin:miter;stroke-miterlimit:4;stroke-dasharray:none;stroke-dashoffset:0;stroke-opacity:1"/><path style="fill:#fff;fill-opacity:1;stroke:#fc0;stroke-width:.79374993;stroke-linecap:square;stroke-linejoin:miter;stroke-miterlimit:4;stroke-dasharray:none;stroke-dashoffset:0;stroke-opacity:1" id="path5213" d="m 375.85796,-2.9946476 c 0,0 2.51266,1.8709 3.38243,2.15152997 0.86976,0.28063 4.44548,0.74835 4.44548,0.74835 l -0.0966,2.80633003 c 0,0 -1.54625,0.28064 -3.28579,-0.0935 -1.73954,-0.37418 -14.20621,-0.46772 -14.20621,-0.46772"/><path id="path5215" d="m 375.79843,3.8052724 5.96227,-0.7956 -9.18023,-1.59078 -8.88926,0.0497 -6.9128,1.24282 3.69017,1.09388 7.66492,0.19883 z" style="fill:#fff;fill-opacity:1;stroke:#fc0;stroke-width:.79374999;stroke-linecap:square;stroke-linejoin:miter;stroke-miterlimit:4;stroke-dasharray:none;stroke-dashoffset:0;stroke-opacity:1"/><path id="path1471" d="m 365.97886,41.973692 c 0,0 -1.46543,-1.12693 -2.39798,-2.4208 -0.93255,-1.29388 -1.73188,-3.506 -1.73188,-3.506" style="fill:none;stroke:#000;stroke-width:.63273007;stroke-linecap:butt;stroke-linejoin:miter;stroke-miterlimit:4;stroke-dasharray:none;stroke-opacity:1"/><path id="path1473" d="m 359.84947,67.455972 v -3.175" style="fill:none;stroke:#000;stroke-width:.79374999;stroke-linecap:butt;stroke-linejoin:miter;stroke-miterlimit:4;stroke-dasharray:none;stroke-opacity:1"/><path style="fill:none;stroke:#000;stroke-width:.79374999;stroke-linecap:butt;stroke-linejoin:miter;stroke-miterlimit:4;stroke-dasharray:none;stroke-opacity:1" id="path1475" d="m 363.02446,67.455972 v -3.175"/><path id="path1477" d="m 361.43695,67.455972 v -3.175" style="fill:none;stroke:#000;stroke-width:.79374999;stroke-linecap:butt;stroke-linejoin:miter;stroke-miterlimit:4;stroke-dasharray:none;stroke-opacity:1"/><path style="fill:none;stroke:#000;stroke-width:.63273007;stroke-linecap:butt;stroke-linejoin:miter;stroke-miterlimit:4;stroke-dasharray:none;stroke-opacity:1" id="path1481" d="m 372.33769,41.973692 c 0,0 1.46543,-1.12693 2.39798,-2.4208 0.93255,-1.29388 1.73188,-3.506 1.73188,-3.506"/><path style="fill:none;stroke:#000;stroke-width:.79374999;stroke-linecap:butt;stroke-linejoin:miter;stroke-miterlimit:4;stroke-dasharray:none;stroke-opacity:1" id="path1483" d="m 378.46708,67.455972 v -3.175"/><path id="path1485" d="m 375.29209,67.455972 v -3.175" style="fill:none;stroke:#000;stroke-width:.79374999;stroke-linecap:butt;stroke-linejoin:miter;stroke-miterlimit:4;stroke-dasharray:none;stroke-opacity:1"/><path style="fill:none;stroke:#000;stroke-width:.79374999;stroke-linecap:butt;stroke-linejoin:miter;stroke-miterlimit:4;stroke-dasharray:none;stroke-opacity:1" id="path1487" d="m 376.8796,67.455972 v -3.175"/><path id="path1495" d="m 388.61772,35.197632 2.05797,-6.64164" style="fill:none;stroke:#000;stroke-width:.79374999;stroke-linecap:butt;stroke-linejoin:miter;stroke-miterlimit:4;stroke-dasharray:none;stroke-opacity:1"/><path id="path1497" d="m 409.15876,59.518482 v -3.175" style="fill:none;stroke:#000;stroke-width:.79374999;stroke-linecap:butt;stroke-linejoin:miter;stroke-miterlimit:4;stroke-dasharray:none;stroke-opacity:1"/><path style="fill:none;stroke:#000;stroke-width:.79374999;stroke-linecap:butt;stroke-linejoin:miter;stroke-miterlimit:4;stroke-dasharray:none;stroke-opacity:1" id="path1499" d="m 405.98377,59.518482 v -3.175"/><path id="path1501" d="m 407.57128,59.518482 v -3.175" style="fill:none;stroke:#000;stroke-width:.79374999;stroke-linecap:butt;stroke-linejoin:miter;stroke-miterlimit:4;stroke-dasharray:none;stroke-opacity:1"/><path id="path1503" d="m 390.6757,33.794472 c 0,0 1.77735,5.23848 1.40317,6.26747 -0.37418,1.02899 -4.11595,11.88013 -4.11595,11.88013 l -2.5257,2.61924 -4.39658,-1.02899 -0.18709,-1.68379 1.49671,-2.89988 c 0,0 4.58367,-2.05797 4.49012,-2.61924 -0.0935,-0.56127 1.12254,-5.33203 1.02899,-5.70621 -0.0935,-0.37417 -1.12253,-2.61924 -1.12253,-2.61924" style="fill:none;stroke:#000;stroke-width:.79374999;stroke-linecap:butt;stroke-linejoin:miter;stroke-miterlimit:4;stroke-dasharray:none;stroke-opacity:1"/><path id="path1505" d="m 384.78241,54.000052 1.12253,-3.3676" style="fill:none;stroke:#000;stroke-width:.79374999;stroke-linecap:butt;stroke-linejoin:miter;stroke-miterlimit:4;stroke-dasharray:none;stroke-opacity:1"/><path style="fill:none;stroke:#000;stroke-width:.79374999;stroke-linecap:butt;stroke-linejoin:miter;stroke-miterlimit:4;stroke-dasharray:none;stroke-opacity:1" id="path1507" d="m 383.44345,53.751502 1.12253,-3.3676"/><path id="path1509" d="m 382.10449,53.564422 1.12253,-3.3676" style="fill:none;stroke:#000;stroke-width:.79374999;stroke-linecap:butt;stroke-linejoin:miter;stroke-miterlimit:4;stroke-dasharray:none;stroke-opacity:1"/><path id="path1511" d="m 393.94975,28.181812 c 0.93533,-2.45959 -0.15294,-5.15831 -1.53626,-7.21894 -2.38319,-3.57049 -4.98951,-6.98573 -7.63108,-10.3674 -0.0912,-0.20258 1.52407,-0.7810696 2.09269,-1.0749896 2.1941,-0.88433 4.50994,-1.85515 6.92341,-1.66132 3.42757,0.63548 6.79301,1.56299 10.16049,2.4556796 1.71498,2.46333 3.42996,4.92667 5.14494,7.39 0.0624,2.21388 0.12473,4.42777 0.18709,6.64165 -1.68106,-0.92273 -3.37009,-1.97587 -5.27833,-2.3319 -1.6155,0.0381 -3.29216,0.4486 -4.64012,1.36302 -0.7878,0.98011 -1.04746,2.28904 -1.55107,3.43066 -0.2896,0.73051 -0.60073,1.45863 -0.53695,2.25923 -0.0202,0.54667 -0.0405,1.09333 -0.0607,1.64 -1.09137,-0.8419 -2.18273,-1.68379 -3.2741,-2.52569 z" style="fill:#fff;stroke:#000;stroke-width:.79374999;stroke-linecap:butt;stroke-linejoin:miter;stroke-miterlimit:4;stroke-dasharray:none;stroke-opacity:1"/><path id="path1513" d="m 397.22381,29.491432 c 0,0 1.68379,-7.29646 1.30962,-8.13836 -0.37418,-0.8419 -2.24507,-4.39658 -2.80633,-5.23848 -0.56127,-0.8419 -5.61266,-7.6706396 -5.61266,-7.6706396" style="fill:none;stroke:#000;stroke-width:.79374999;stroke-linecap:butt;stroke-linejoin:miter;stroke-miterlimit:4;stroke-dasharray:none;stroke-opacity:1"/><path id="path1515" d="m 408.72976,17.704842 c 0,0 -7.39,-2.15152 -8.13836,-1.49671 -0.74835,0.65481 -3.36759,-7.6706296 -3.36759,-7.6706296" style="fill:none;stroke:#000;stroke-width:.79374999;stroke-linecap:butt;stroke-linejoin:miter;stroke-miterlimit:4;stroke-dasharray:none;stroke-opacity:1"/><path id="path1520" d="m 403.14276,10.221302 c 0,0 6.5481,2.99342 4.30304,-2.9934196 -2.24506,-5.98684 -6.17393,-9.35444 -6.17393,-9.35444 4.77805,2.88445997 13.97147,10.52375 9.54152,16.6508896 -1.30961,1.49672 -1.87088,2.24507 -1.87088,2.24507 z" style="fill:gray;fill-opacity:1;stroke:#000;stroke-width:.79374999;stroke-linecap:butt;stroke-linejoin:miter;stroke-miterlimit:4;stroke-dasharray:none;stroke-opacity:1"/><rect style="opacity:1;fill:none;fill-opacity:1;stroke:none;stroke-width:.79374993;stroke-linecap:round;stroke-linejoin:round;stroke-miterlimit:4;stroke-dasharray:none;stroke-opacity:1" id="rect5235" width="266.435" height="119.894" x="620.001" y="-41.048" ry=".261" transform="scale(1,-1)"/><text style="font-style:normal;font-weight:400;font-size:37.59195328px;line-height:22.55517006px;font-family:sans-serif;letter-spacing:0;word-spacing:0;fill:#3c6eb4;fill-opacity:1;stroke:none;stroke-width:.26458332px;stroke-linecap:butt;stroke-linejoin:miter;stroke-opacity:1" id="text163986" x="711.802" y="-129.146" xml:space="preserve"><tspan id="tspan163984" x="711.802" y="-129.146" dx="0 0 0 0" style="font-style:normal;font-variant:normal;font-weight:400;font-stretch:normal;font-family:Montserrat;-inkscape-font-specification:Montserrat;fill:#3c6eb4;fill-opacity:1;stroke-width:.26458332px"><tspan id="tspan163980" style="fill:#000;stroke-width:.26458332px">build</tspan><tspan style="fill:#fc0" id="tspan163982">ah</tspan></tspan></text><g id="g164165" transform="translate(-1.0583333,-118.90753)"><g id="g164101" transform="translate(-118.1493,-10.074071)" style="fill:none;stroke:#000"><path style="opacity:1;fill:none;fill-opacity:1;stroke:#000;stroke-width:1.0583334;stroke-linecap:round;stroke-linejoin:round;stroke-miterlimit:4;stroke-dasharray:none;stroke-opacity:1" id="path164095" d="m 796.57913,145.63255 -19.29817,-9.23285 -4.82036,-20.8616 13.2871,-16.780617 21.38926,-0.0641 13.38485,16.701147 -4.69887,20.8897 z"/><path id="path164097" d="m 185.87625,59.397934 c -0.86973,0.217518 -2.57155,-0.134058 -2.52494,1.185647 0.29798,1.534184 0.51469,3.25265 -0.0756,4.733265 -2.59999,1.640261 -6.20252,6.520936 -9.25204,6.909269 l 43.94309,20.562507 42.71289,-19.994542 c 1.02895,-0.723043 2.47728,0.557072 1.54478,0.673163 -3.35476,-0.649977 -5.60495,-3.545794 -7.89139,-5.779104 -1.32714,-1.221465 -1.85144,-3.043527 -1.61413,-4.807152 -0.0512,-1.079531 1.14073,-2.378109 0.11981,-3.2134 -1.25435,-0.06792 -2.90233,-0.67841 -3.75435,0.61017 -3.09923,3.191828 -7.98829,4.311297 -12.1138,2.887779 -1.55682,-0.854291 -3.06748,0.550296 -4.47291,1.067862 -6.87259,3.170321 -14.6714,4.278483 -21.96511,2.268758 -3.27701,-0.820909 -6.47851,-1.975772 -9.37028,-3.683317 -1.34887,-0.137072 -2.59577,0.774552 -3.96402,0.837618 -3.77142,0.600908 -7.75015,-0.913634 -10.36088,-3.74839 -0.24699,-0.267363 -0.5888,-0.503792 -0.96111,-0.510133 z m 32.50205,15.39649 c 1.43219,-0.301225 0.54304,1.655686 0.79688,2.500732 0.0233,4.281784 0.0465,8.563566 0.0697,12.845351 -1.3554,0.293932 -1.91251,-0.210418 -1.5934,-1.590991 v -13.77926 c 0.24226,0.0081 0.48452,0.01611 0.72678,0.02417 z" transform="matrix(0.26458333,0,0,0.26458333,738.81198,118.53055)" style="fill:#fff;fill-opacity:1;stroke:none;stroke-width:2.99999976;stroke-linecap:round;stroke-linejoin:round;stroke-miterlimit:4;stroke-dasharray:none;stroke-dashoffset:5.99999952"/><path id="path164099" d="m 799.53748,117.44571 c -0.14618,0.005 -0.2976,0.0274 -0.42892,0.009 -2.03273,0.0428 -4.06359,0.0892 -6.0942,0.031 -0.28926,0.11428 -0.24836,0.50228 -0.35967,0.75138 -0.22736,0.98319 -0.0226,1.99923 0.0233,2.99155 0.07,0.84001 0.14093,1.67976 0.21136,2.51974 -1.27629,1.32719 -2.44789,2.78357 -3.30058,4.42195 -0.45703,0.87705 -0.62335,1.88496 -0.49712,2.86391 0.0203,0.83713 0.14089,1.79437 -0.44494,2.48357 -0.2045,0.17656 -0.15243,0.47737 0.0667,0.6134 0.61884,0.5474 1.48745,0.80041 2.29805,0.60306 0.99978,-0.16365 1.63821,-1.03284 2.31768,-1.6955 0.15864,-0.2272 0.63711,-0.45408 0.38551,-0.76998 -0.7675,-1.08459 -1.32972,-2.44507 -1.0697,-3.79098 0.12353,-0.6101 0.64173,-1.02068 1.16892,-1.28675 0.28556,-0.28377 -0.2066,-0.53663 -0.23823,-0.83509 0.0848,-0.56057 0.18974,-1.14181 0.44597,-1.65209 0.25811,-0.42031 0.80937,-0.32417 1.21078,-0.48731 0.63192,-0.22035 1.33566,-0.35672 1.98024,-0.10284 0.44879,0.16718 0.94179,0.19308 1.38079,0.37569 0.40792,0.36381 0.44788,0.95927 0.5917,1.45728 0.0844,0.26471 0.0795,0.56128 -0.12093,0.77463 -0.15859,0.17909 -0.12732,0.47628 0.12661,0.54311 0.63811,0.32204 1.10695,0.97435 1.09296,1.70481 0.0246,1.20969 -0.45512,2.37707 -1.16789,3.33726 -0.10802,0.32476 0.32009,0.49853 0.46974,0.73794 0.65863,0.70094 1.34012,1.50616 2.33267,1.70584 0.88352,0.181 1.86515,-0.13458 2.46135,-0.80718 0.0949,-0.27388 -0.28759,-0.40886 -0.36122,-0.65371 -0.42704,-0.7126 -0.29638,-1.55962 -0.2806,-2.34869 0.15195,-1.12447 -0.16703,-2.25995 -0.74207,-3.22358 -0.84528,-1.44611 -1.89414,-2.76858 -3.0608,-3.96823 0.10988,-1.60331 0.32998,-3.20245 0.33383,-4.81108 -0.019,-0.47827 -0.13757,-0.95613 -0.33435,-1.39061 -0.10996,-0.0918 -0.25069,-0.10579 -0.39687,-0.10129 z m -0.81339,15.38149 c -0.0464,-0.003 -0.0974,0.0351 -0.14366,0.0372 -0.54357,0.44869 -1.198,0.81023 -1.92236,0.80047 -0.71698,0.0539 -1.45907,-0.0997 -2.0345,-0.54881 -0.19522,-0.13527 -0.4874,-0.43793 -0.68678,-0.14831 -0.47322,0.53276 -0.98364,1.03938 -1.4764,1.54771 -0.15575,0.31923 0.32053,0.38287 0.51935,0.50023 1.12198,0.45684 2.32628,0.77692 3.54397,0.77773 1.30395,-0.0584 2.61944,-0.35107 3.78271,-0.9524 0.27683,-0.2308 -0.0777,-0.51977 -0.23306,-0.70125 -0.43157,-0.4316 -0.83203,-0.91444 -1.30431,-1.29242 -0.0141,-0.0134 -0.0295,-0.019 -0.045,-0.0202 z" style="fill:#fff;fill-opacity:1;stroke:none;stroke-width:.79374993;stroke-linecap:round;stroke-linejoin:round;stroke-miterlimit:4;stroke-dasharray:none;stroke-dashoffset:5.99999952"/></g><path id="path164103" d="m 669.39724,96.367584 1.02899,-1.957235 15.43482,-0.460526 1.59025,2.993416 -2.61924,6.332231 -5.42557,0.80592 -3.92887,0.34539 -4.20949,-2.76315 z" style="fill:#fde385;fill-opacity:1;stroke:none;stroke-width:.26458332px;stroke-linecap:butt;stroke-linejoin:miter;stroke-opacity:1"/><path id="path164105" d="m 668.72873,96.705238 c 1.29471,-1.620631 2.29404,-2.396806 3.34528,-2.88108 l 0.51322,0.669933 m 14.83217,1.608651 c -1.2947,-1.620635 -2.15245,-2.246185 -3.06212,-2.579834 l -0.52526,0.706599" style="fill:#fde385;fill-opacity:1;stroke:#fcc917;stroke-width:.79374999;stroke-linecap:square;stroke-linejoin:miter;stroke-miterlimit:4;stroke-dasharray:none;stroke-dashoffset:0;stroke-opacity:1"/><path id="path164107" d="m 677.98853,116.49938 c -0.34914,-0.002 -0.69863,0.044 -1.03586,0.14075 -2.10393,0.68594 -2.93218,1.30639 -2.55731,3.44971 0.43873,2.20092 2.18697,4.04843 3.96734,3.90808 1.78019,0.13991 3.5281,-1.70739 3.96677,-3.90808 0.37487,-2.14332 -0.45337,-2.76377 -2.5573,-3.44971 -0.33722,-0.0967 -0.68672,-0.14308 -1.03586,-0.14075 -0.12482,0.001 -0.24946,0.0116 -0.37361,0.0253 -0.12433,-0.014 -0.24916,-0.0242 -0.37417,-0.0253 z" style="fill:#ccc;fill-opacity:1;stroke:none;stroke-width:.79374999;stroke-linecap:square;stroke-linejoin:miter;stroke-miterlimit:4;stroke-dasharray:none;stroke-dashoffset:0;stroke-opacity:1"/><path id="path164109" d="m 682.08117,113.78901 c 0.91986,0.9492 1.75512,1.98035 2.49266,3.07724 0.68351,1.01654 1.29935,2.144 1.34344,3.36817 0.0249,0.69116 -0.135,1.38133 -0.0846,2.07111 0.0252,0.34488 0.10516,0.69066 0.27705,0.99072 0.17189,0.30006 0.44194,0.55171 0.77047,0.65966 0.22103,0.0726 0.46179,0.0784 0.68921,0.0293 0.22741,-0.0491 0.44164,-0.15193 0.6304,-0.28796 0.37751,-0.27205 0.64758,-0.66865 0.86173,-1.08176 0.52388,-1.01062 0.75221,-2.15202 0.83092,-3.28763 0.0787,-1.13561 0.0138,-2.27549 -0.0167,-3.41341 -0.0193,-0.72156 -0.0232,-1.45577 0.17755,-2.14911 0.23128,-0.79874 0.71878,-1.49341 1.15186,-2.20328 0.43309,-0.70988 0.82802,-1.48546 0.83801,-2.31695 0.007,-0.57479 -0.1711,-1.13308 -0.31075,-1.69069 -0.13965,-0.55761 -0.24144,-1.14927 -0.0841,-1.70214 0.10561,-0.371 0.32101,-0.69904 0.51086,-1.03483 0.95093,-1.68188 1.29523,-3.68638 1.02955,-5.600118 -0.26569,-1.91374 -1.12956,-3.730164 -2.39332,-5.191636 -0.0591,-0.06838 -0.11962,-0.136493 -0.19144,-0.191396 -0.0718,-0.0549 -0.15638,-0.09637 -0.24644,-0.104263 -0.0833,-0.0073 -0.16782,0.01471 -0.24093,0.05531 -0.0731,0.0406 -0.13525,0.09915 -0.18648,0.165253 -0.10245,0.132201 -0.16121,0.291958 -0.22941,0.444673 -0.34883,0.781052 -0.96388,1.408741 -1.59109,1.990395 -0.62722,0.581655 -1.28716,1.144393 -1.76597,1.853243 -0.51192,0.757873 -0.79212,1.647778 -0.99797,2.538874 -0.20585,0.8911 -0.34453,1.79879 -0.60719,2.67483 -0.0931,0.31033 -0.2015,0.61605 -0.32481,0.91564 -0.83771,-0.13943 -1.68628,-0.21352 -2.53548,-0.22138 -0.92151,-0.009 -1.84374,0.0609 -2.75357,0.20747 0.83081,0.40874 1.56474,1.01281 2.12562,1.74951 0.68638,0.90154 1.10965,2.00099 1.20503,3.13006 z" style="fill:gray;fill-opacity:1;stroke:#000;stroke-width:.79374999;stroke-linecap:square;stroke-linejoin:miter;stroke-miterlimit:4;stroke-dasharray:none;stroke-dashoffset:0;stroke-opacity:1"/><path id="path164111" d="m 665.98766,127.54111 c 1.45053,0.14024 2.01604,-0.91633 2.5656,-1.36858 1.09913,-0.90452 0.1113,-1.91988 0.23409,-2.39785" style="fill:none;fill-opacity:1;stroke:#000;stroke-width:.79374999;stroke-linecap:butt;stroke-linejoin:miter;stroke-miterlimit:4;stroke-dasharray:none;stroke-opacity:1"/><path style="fill:none;fill-opacity:1;stroke:#fde385;stroke-width:.79374999;stroke-linecap:butt;stroke-linejoin:miter;stroke-miterlimit:4;stroke-dasharray:none;stroke-opacity:1" id="path164113" d="m 656.79097,107.36883 6.8301,1.80907"/><path style="fill:gray;fill-opacity:1;stroke:#000;stroke-width:.79374999;stroke-linecap:square;stroke-linejoin:miter;stroke-miterlimit:4;stroke-dasharray:none;stroke-dashoffset:0;stroke-opacity:1" id="path164115" d="m 674.60667,113.78901 c -0.91986,0.9492 -1.75512,1.98035 -2.49266,3.07724 -0.68351,1.01654 -1.29935,2.14401 -1.34344,3.36818 -0.0249,0.69116 0.135,1.38133 0.0846,2.0711 -0.0252,0.34489 -0.10516,0.69066 -0.27704,0.99072 -0.17189,0.30007 -0.44195,0.55171 -0.77047,0.65966 -0.22103,0.0726 -0.46179,0.0784 -0.68921,0.0293 -0.22741,-0.0491 -0.44164,-0.15193 -0.6304,-0.28796 -0.37751,-0.27205 -0.64758,-0.66865 -0.86173,-1.08176 -0.52388,-1.01062 -0.75221,-2.15202 -0.83092,-3.28763 -0.0787,-1.13561 -0.0138,-2.27549 0.0167,-3.41341 0.0193,-0.72156 0.0232,-1.45577 -0.17755,-2.14911 -0.23128,-0.79874 -0.71878,-1.49341 -1.15186,-2.20328 -0.43309,-0.70988 -0.82802,-1.48546 -0.83801,-2.31695 -0.007,-0.57479 0.1711,-1.13308 0.31075,-1.69069 0.13965,-0.55761 0.24144,-1.14927 0.0841,-1.70214 -0.10561,-0.371 -0.32101,-0.69904 -0.51086,-1.03483 -0.95093,-1.68188 -1.29523,-3.68638 -1.02955,-5.600118 0.26569,-1.91374 1.12956,-3.730164 2.39332,-5.191636 0.0591,-0.06838 0.11962,-0.136493 0.19144,-0.191396 0.0718,-0.0549 0.15638,-0.09637 0.24644,-0.104263 0.0833,-0.0073 0.16782,0.01471 0.24093,0.05531 0.0731,0.0406 0.13525,0.09915 0.18648,0.165253 0.10245,0.132201 0.16121,0.291958 0.22941,0.444673 0.34883,0.781052 0.96388,1.408741 1.59109,1.990395 0.62722,0.581655 1.28716,1.144393 1.76597,1.853243 0.51192,0.757873 0.79212,1.647778 0.99797,2.538874 0.20585,0.8911 0.34453,1.79879 0.60719,2.67483 0.093,0.31033 0.2015,0.61605 0.32481,0.91564 0.83771,-0.13943 1.68628,-0.21352 2.53548,-0.22138 0.92151,-0.009 1.84374,0.0609 2.75357,0.20747 -0.83081,0.40874 -1.56474,1.01281 -2.12562,1.74951 -0.68638,0.90154 -1.10965,2.00099 -1.20503,3.13006 z"/><ellipse style="fill:#000;fill-opacity:1;stroke:#fc0;stroke-width:.79375005;stroke-linecap:square;stroke-linejoin:miter;stroke-miterlimit:4;stroke-dasharray:none;stroke-dashoffset:0;stroke-opacity:1" id="ellipse164117" cx="-685.802" cy="112.941" rx="2.559" ry="2.632" transform="scale(-1,1)"/><path style="fill:none;fill-opacity:1;stroke:#000;stroke-width:.79374993;stroke-linecap:square;stroke-linejoin:miter;stroke-miterlimit:4;stroke-dasharray:none;stroke-dashoffset:0;stroke-opacity:1" id="path164119" d="m 688.09564,109.52895 c -0.51006,-0.66669 -1.32419,-1.09079 -2.16284,-1.12668 -0.79156,-0.0339 -1.5919,0.27667 -2.15345,0.83557"/><path id="path164121" d="m 688.35038,105.60417 c -0.34291,-0.021 -0.67986,-0.13271 -0.96738,-0.32076 -0.28752,-0.18805 -0.52493,-0.45197 -0.68159,-0.75773 -0.22615,-0.44137 -0.27968,-0.95782 -0.21342,-1.4493 0.0663,-0.49149 0.24657,-0.96132 0.46711,-1.40551 0.52564,-1.05872 1.29001,-1.998073 2.21979,-2.727944" style="fill:none;fill-opacity:1;stroke:#000;stroke-width:.79374999;stroke-linecap:square;stroke-linejoin:miter;stroke-miterlimit:4;stroke-dasharray:none;stroke-dashoffset:0;stroke-opacity:1"/><path style="fill:none;fill-opacity:1;stroke:#000;stroke-width:.79374999;stroke-linecap:square;stroke-linejoin:miter;stroke-miterlimit:4;stroke-dasharray:none;stroke-dashoffset:0;stroke-opacity:1" id="path164123" d="m 678.17919,117.2974 0.0935,1.83339 c 0.019,0.37335 0.03,0.75093 -0.0438,1.11741 -0.0738,0.36648 -0.23099,0.71566 -0.4563,1.01397 -0.22531,0.29831 -0.51338,0.54373 -0.81663,0.76235 -0.30325,0.21862 -0.62323,0.41457 -0.91332,0.65037 -0.3976,0.3232 -0.73099,0.71664 -1.07802,1.09362 -0.34704,0.37698 -0.71589,0.74422 -1.16161,0.99696 -0.58472,0.33156 -1.28881,0.44708 -1.94883,0.31976 -0.66001,-0.12733 -1.2706,-0.49647 -1.69003,-1.02174"/><path id="path164125" d="m 680.97887,116.32503 c -0.20725,-0.54651 -0.20725,-1.63953 -0.82897,-1.63953 -0.62171,0 -1.19648,-0.40988 -1.808,-0.40988 -0.61152,0 -1.18629,0.40988 -1.80801,0.40988 -0.62172,0 -0.62172,1.09302 -0.82896,1.63953 -0.20725,0.54651 2.63697,2.32265 2.63697,2.32265 0,0 2.84421,-1.77614 2.63697,-2.32265 z" style="fill:gray;fill-opacity:1;stroke:#000;stroke-width:.79374999;stroke-linecap:square;stroke-linejoin:miter;stroke-miterlimit:4;stroke-dasharray:none;stroke-dashoffset:0;stroke-opacity:1"/><ellipse id="ellipse164127" cx="670.975" cy="112.941" rx="2.559" ry="2.632" style="fill:#000;fill-opacity:1;stroke:#fc0;stroke-width:.79375005;stroke-linecap:square;stroke-linejoin:miter;stroke-miterlimit:4;stroke-dasharray:none;stroke-dashoffset:0;stroke-opacity:1"/><ellipse style="fill:#fff;fill-opacity:1;stroke:none;stroke-width:.79375005;stroke-linecap:square;stroke-linejoin:miter;stroke-miterlimit:4;stroke-dasharray:none;stroke-dashoffset:0;stroke-opacity:1" id="ellipse164129" cx="670.121" cy="112.201" rx="1.258" ry="1.311"/><path id="path164131" d="m 668.68054,109.52895 c 0.51006,-0.66669 1.32419,-1.09079 2.16284,-1.12668 0.79156,-0.0339 1.5919,0.27667 2.15345,0.83557" style="fill:none;fill-opacity:1;stroke:#000;stroke-width:.79374993;stroke-linecap:square;stroke-linejoin:miter;stroke-miterlimit:4;stroke-dasharray:none;stroke-dashoffset:0;stroke-opacity:1"/><path style="fill:none;fill-opacity:1;stroke:#000;stroke-width:.79374999;stroke-linecap:square;stroke-linejoin:miter;stroke-miterlimit:4;stroke-dasharray:none;stroke-dashoffset:0;stroke-opacity:1" id="path164133" d="m 667.89668,105.60417 c 0.34291,-0.021 0.67986,-0.13271 0.96738,-0.32076 0.28752,-0.18805 0.52493,-0.45197 0.68159,-0.75773 0.22615,-0.44137 0.27968,-0.95782 0.21342,-1.4493 -0.0663,-0.49149 -0.24657,-0.96132 -0.46711,-1.40551 -0.52564,-1.05872 -1.29001,-1.998073 -2.21979,-2.727944"/><path style="fill:none;fill-opacity:1;stroke:#000;stroke-width:.79375005;stroke-linecap:square;stroke-linejoin:miter;stroke-miterlimit:4;stroke-dasharray:none;stroke-dashoffset:0;stroke-opacity:1" id="path164135" d="m 678.45158,127.93405 v 3.63912"/><path style="fill:#fde385;fill-opacity:1;stroke:#fcc917;stroke-width:.79374993;stroke-linecap:square;stroke-linejoin:miter;stroke-miterlimit:4;stroke-dasharray:none;stroke-dashoffset:0;stroke-opacity:1" id="path164137" d="m 671.55002,100.46623 c 0,0 -2.51266,1.87089 -3.38243,2.15152 -0.86976,0.28063 -4.44548,0.74835 -4.44548,0.74835 l 0.0966,2.80633 c 0,0 1.54625,0.28064 3.28579,-0.0935 1.73954,-0.37418 14.20621,-0.46772 14.20621,-0.46772"/><path id="path164139" d="m 700.13359,107.36883 -6.8301,1.80907" style="fill:none;fill-opacity:1;stroke:#fde385;stroke-width:.79374999;stroke-linecap:butt;stroke-linejoin:miter;stroke-miterlimit:4;stroke-dasharray:none;stroke-opacity:1"/><path id="path164141" d="m 682.85977,124.87214 c -2.21493,1.35318 -4.81675,1.26558 -4.4536,1.26558 0.36315,0 -2.23867,0.0876 -4.4536,-1.26558" style="fill:none;fill-opacity:1;stroke:#000;stroke-width:.79374999;stroke-linecap:square;stroke-linejoin:miter;stroke-miterlimit:4;stroke-dasharray:none;stroke-dashoffset:0;stroke-opacity:1"/><path style="fill:none;fill-opacity:1;stroke:#000;stroke-width:.79374999;stroke-linecap:butt;stroke-linejoin:miter;stroke-miterlimit:4;stroke-dasharray:none;stroke-opacity:1" id="path164143" d="m 690.79253,127.7282 c -1.45053,0.14024 -2.01604,-0.91633 -2.5656,-1.36858 -1.09913,-0.90452 -0.1113,-1.91988 -0.23409,-2.39785"/><path style="fill:none;fill-opacity:1;stroke:#fde385;stroke-width:.79374999;stroke-linecap:butt;stroke-linejoin:miter;stroke-miterlimit:4;stroke-dasharray:none;stroke-opacity:1" id="path164145" d="m 660.77576,124.86583 4.67858,-3.21224"/><ellipse id="ellipse164147" cx="686.581" cy="112.201" rx="1.258" ry="1.311" style="fill:#fff;fill-opacity:1;stroke:none;stroke-width:.79375005;stroke-linecap:square;stroke-linejoin:miter;stroke-miterlimit:4;stroke-dasharray:none;stroke-dashoffset:0;stroke-opacity:1"/><path style="fill:none;fill-opacity:1;stroke:#000;stroke-width:.79374999;stroke-linecap:square;stroke-linejoin:miter;stroke-miterlimit:4;stroke-dasharray:none;stroke-dashoffset:0;stroke-opacity:1" id="path164149" d="m 677.59167,116.05505 -0.52917,1.25677"/><path id="path164151" d="m 679.17915,116.05505 0.52917,1.25677" style="fill:none;fill-opacity:1;stroke:#000;stroke-width:.79374999;stroke-linecap:square;stroke-linejoin:miter;stroke-miterlimit:4;stroke-dasharray:none;stroke-dashoffset:0;stroke-opacity:1"/><path id="path164153" d="m 695.61685,124.86583 -4.67858,-3.21224" style="fill:none;fill-opacity:1;stroke:#fde385;stroke-width:.79374999;stroke-linecap:butt;stroke-linejoin:miter;stroke-miterlimit:4;stroke-dasharray:none;stroke-opacity:1"/><path id="path164155" d="m 685.11528,100.46623 c 0,0 2.51266,1.87089 3.38243,2.15152 0.86976,0.28063 4.44548,0.74835 4.44548,0.74835 l -0.0966,2.80633 c 0,0 -1.54625,0.28064 -3.28579,-0.0935 -1.73954,-0.37418 -14.20621,-0.46772 -14.20621,-0.46772" style="fill:#fde385;fill-opacity:1;stroke:#fcc917;stroke-width:.79374993;stroke-linecap:square;stroke-linejoin:miter;stroke-miterlimit:4;stroke-dasharray:none;stroke-dashoffset:0;stroke-opacity:1"/><path style="fill:#fde385;fill-opacity:1;stroke:#fcc917;stroke-width:.79374999;stroke-linecap:square;stroke-linejoin:miter;stroke-miterlimit:4;stroke-dasharray:none;stroke-dashoffset:0;stroke-opacity:1" id="path164157" d="m 685.05575,107.26614 5.96227,-0.7956 -9.18023,-1.59078 -8.88926,0.0497 -6.9128,1.24282 3.69017,1.09388 7.66492,0.19883 z"/><path style="fill:#fcda5d;fill-opacity:1;fill-rule:evenodd;stroke:#fcc917;stroke-width:.79374999;stroke-linecap:butt;stroke-linejoin:miter;stroke-miterlimit:4;stroke-dasharray:none;stroke-opacity:1" id="path164159" d="m 676.81873,99.653466 -2.18282,-0.0661 -1.91823,-2.38125 0.0661,-2.910414 3.16158,-0.842507 c 1.69501,-0.584128 3.19616,-0.406767 4.77192,0 2.72967,0.795783 3.24708,0.842507 3.24708,0.842507 l 0.0661,2.910414 -1.91823,2.38125 -2.18282,0.0661"/><path id="path164161" d="m 681.51475,97.860416 0.46611,-5.424686 -3.46306,-0.577161 -3.46269,0.577161 0.46575,5.424686 2.99695,3.704164 z" style="fill:#fde385;fill-opacity:1;fill-rule:evenodd;stroke:#fcc917;stroke-width:.79374999;stroke-linecap:butt;stroke-linejoin:miter;stroke-miterlimit:4;stroke-dasharray:none;stroke-opacity:1"/><path id="path164163" d="m 678.57794,117.2974 -0.0935,1.83339 c -0.019,0.37335 -0.03,0.75093 0.0438,1.11741 0.0738,0.36648 0.23099,0.71566 0.4563,1.01397 0.22531,0.29831 0.51338,0.54373 0.81663,0.76235 0.30325,0.21862 0.62323,0.41457 0.91332,0.65037 0.3976,0.3232 0.73099,0.71664 1.07802,1.09362 0.34704,0.37698 0.71589,0.74422 1.16161,0.99696 0.58472,0.33156 1.28881,0.44708 1.94883,0.31976 0.66001,-0.12733 1.2706,-0.49647 1.69003,-1.02174" style="fill:none;fill-opacity:1;stroke:#000;stroke-width:.79374999;stroke-linecap:square;stroke-linejoin:miter;stroke-miterlimit:4;stroke-dasharray:none;stroke-dashoffset:0;stroke-opacity:1"/></g><text id="text164173" x="711.802" y="3.146" xml:space="preserve" style="font-style:normal;font-weight:400;font-size:37.59195328px;line-height:22.55517006px;font-family:sans-serif;letter-spacing:0;word-spacing:0;fill:#3c6eb4;fill-opacity:1;stroke:none;stroke-width:.26458332px;stroke-linecap:butt;stroke-linejoin:miter;stroke-opacity:1"><tspan style="font-style:normal;font-variant:normal;font-weight:400;font-stretch:normal;font-family:Montserrat;-inkscape-font-specification:Montserrat;fill:#3c6eb4;fill-opacity:1;stroke-width:.26458332px" id="tspan164171" x="711.802" y="3.146" dx="0 0 0 0"><tspan style="fill:#000;stroke-width:.26458332px" id="tspan164167">build</tspan><tspan id="tspan164169" style="fill:#fc0">ah</tspan></tspan></text><g id="g164245" transform="translate(-1.0583333,2.8008191)"><g style="fill:none;stroke:#000" id="g164181" transform="translate(-118.1493,-10.074071)"><path id="path164175" d="m 796.57913,145.63255 -19.29817,-9.23285 -4.82036,-20.8616 13.2871,-16.780617 21.38926,-0.0641 13.38485,16.701147 -4.69887,20.8897 z" style="opacity:1;fill:#c9c8c6;fill-opacity:1;stroke:#fff;stroke-width:1.0583334;stroke-linecap:round;stroke-linejoin:round;stroke-miterlimit:4;stroke-dasharray:none;stroke-opacity:1"/><path style="fill:#fff;fill-opacity:1;stroke:none;stroke-width:2.99999976;stroke-linecap:round;stroke-linejoin:round;stroke-miterlimit:4;stroke-dasharray:none;stroke-dashoffset:5.99999952" id="path164177" d="m 185.87625,59.397934 c -0.86973,0.217518 -2.57155,-0.134058 -2.52494,1.185647 0.29798,1.534184 0.51469,3.25265 -0.0756,4.733265 -2.59999,1.640261 -6.20252,6.520936 -9.25204,6.909269 l 43.94309,20.562507 42.71289,-19.994542 c 1.02895,-0.723043 2.47728,0.557072 1.54478,0.673163 -3.35476,-0.649977 -5.60495,-3.545794 -7.89139,-5.779104 -1.32714,-1.221465 -1.85144,-3.043527 -1.61413,-4.807152 -0.0512,-1.079531 1.14073,-2.378109 0.11981,-3.2134 -1.25435,-0.06792 -2.90233,-0.67841 -3.75435,0.61017 -3.09923,3.191828 -7.98829,4.311297 -12.1138,2.887779 -1.55682,-0.854291 -3.06748,0.550296 -4.47291,1.067862 -6.87259,3.170321 -14.6714,4.278483 -21.96511,2.268758 -3.27701,-0.820909 -6.47851,-1.975772 -9.37028,-3.683317 -1.34887,-0.137072 -2.59577,0.774552 -3.96402,0.837618 -3.77142,0.600908 -7.75015,-0.913634 -10.36088,-3.74839 -0.24699,-0.267363 -0.5888,-0.503792 -0.96111,-0.510133 z m 32.50205,15.39649 c 1.43219,-0.301225 0.54304,1.655686 0.79688,2.500732 0.0233,4.281784 0.0465,8.563566 0.0697,12.845351 -1.3554,0.293932 -1.91251,-0.210418 -1.5934,-1.590991 v -13.77926 c 0.24226,0.0081 0.48452,0.01611 0.72678,0.02417 z" transform="matrix(0.26458333,0,0,0.26458333,738.81198,118.53055)"/><path style="fill:#fff;fill-opacity:1;stroke:none;stroke-width:.79374993;stroke-linecap:round;stroke-linejoin:round;stroke-miterlimit:4;stroke-dasharray:none;stroke-dashoffset:5.99999952" id="path164179" d="m 799.53748,117.44571 c -0.14618,0.005 -0.2976,0.0274 -0.42892,0.009 -2.03273,0.0428 -4.06359,0.0892 -6.0942,0.031 -0.28926,0.11428 -0.24836,0.50228 -0.35967,0.75138 -0.22736,0.98319 -0.0226,1.99923 0.0233,2.99155 0.07,0.84001 0.14093,1.67976 0.21136,2.51974 -1.27629,1.32719 -2.44789,2.78357 -3.30058,4.42195 -0.45703,0.87705 -0.62335,1.88496 -0.49712,2.86391 0.0203,0.83713 0.14089,1.79437 -0.44494,2.48357 -0.2045,0.17656 -0.15243,0.47737 0.0667,0.6134 0.61884,0.5474 1.48745,0.80041 2.29805,0.60306 0.99978,-0.16365 1.63821,-1.03284 2.31768,-1.6955 0.15864,-0.2272 0.63711,-0.45408 0.38551,-0.76998 -0.7675,-1.08459 -1.32972,-2.44507 -1.0697,-3.79098 0.12353,-0.6101 0.64173,-1.02068 1.16892,-1.28675 0.28556,-0.28377 -0.2066,-0.53663 -0.23823,-0.83509 0.0848,-0.56057 0.18974,-1.14181 0.44597,-1.65209 0.25811,-0.42031 0.80937,-0.32417 1.21078,-0.48731 0.63192,-0.22035 1.33566,-0.35672 1.98024,-0.10284 0.44879,0.16718 0.94179,0.19308 1.38079,0.37569 0.40792,0.36381 0.44788,0.95927 0.5917,1.45728 0.0844,0.26471 0.0795,0.56128 -0.12093,0.77463 -0.15859,0.17909 -0.12732,0.47628 0.12661,0.54311 0.63811,0.32204 1.10695,0.97435 1.09296,1.70481 0.0246,1.20969 -0.45512,2.37707 -1.16789,3.33726 -0.10802,0.32476 0.32009,0.49853 0.46974,0.73794 0.65863,0.70094 1.34012,1.50616 2.33267,1.70584 0.88352,0.181 1.86515,-0.13458 2.46135,-0.80718 0.0949,-0.27388 -0.28759,-0.40886 -0.36122,-0.65371 -0.42704,-0.7126 -0.29638,-1.55962 -0.2806,-2.34869 0.15195,-1.12447 -0.16703,-2.25995 -0.74207,-3.22358 -0.84528,-1.44611 -1.89414,-2.76858 -3.0608,-3.96823 0.10988,-1.60331 0.32998,-3.20245 0.33383,-4.81108 -0.019,-0.47827 -0.13757,-0.95613 -0.33435,-1.39061 -0.10996,-0.0918 -0.25069,-0.10579 -0.39687,-0.10129 z m -0.81339,15.38149 c -0.0464,-0.003 -0.0974,0.0351 -0.14366,0.0372 -0.54357,0.44869 -1.198,0.81023 -1.92236,0.80047 -0.71698,0.0539 -1.45907,-0.0997 -2.0345,-0.54881 -0.19522,-0.13527 -0.4874,-0.43793 -0.68678,-0.14831 -0.47322,0.53276 -0.98364,1.03938 -1.4764,1.54771 -0.15575,0.31923 0.32053,0.38287 0.51935,0.50023 1.12198,0.45684 2.32628,0.77692 3.54397,0.77773 1.30395,-0.0584 2.61944,-0.35107 3.78271,-0.9524 0.27683,-0.2308 -0.0777,-0.51977 -0.23306,-0.70125 -0.43157,-0.4316 -0.83203,-0.91444 -1.30431,-1.29242 -0.0141,-0.0134 -0.0295,-0.019 -0.045,-0.0202 z"/></g><path style="fill:#fde385;fill-opacity:1;stroke:none;stroke-width:.26458332px;stroke-linecap:butt;stroke-linejoin:miter;stroke-opacity:1" id="path164183" d="m 669.39724,96.367584 1.02899,-1.957235 15.43482,-0.460526 1.59025,2.993416 -2.61924,6.332231 -5.42557,0.80592 -3.92887,0.34539 -4.20949,-2.76315 z"/><path style="fill:#fde385;fill-opacity:1;stroke:#fcc917;stroke-width:.79374999;stroke-linecap:square;stroke-linejoin:miter;stroke-miterlimit:4;stroke-dasharray:none;stroke-dashoffset:0;stroke-opacity:1" id="path164185" d="m 668.72873,96.705238 c 1.29471,-1.620631 2.29404,-2.396806 3.34528,-2.88108 l 0.51322,0.669933 m 14.83217,1.608651 c -1.2947,-1.620635 -2.15245,-2.246185 -3.06212,-2.579834 l -0.52526,0.706599"/><path style="fill:#ccc;fill-opacity:1;stroke:none;stroke-width:.79374999;stroke-linecap:square;stroke-linejoin:miter;stroke-miterlimit:4;stroke-dasharray:none;stroke-dashoffset:0;stroke-opacity:1" id="path164187" d="m 677.98853,116.49938 c -0.34914,-0.002 -0.69863,0.044 -1.03586,0.14075 -2.10393,0.68594 -2.93218,1.30639 -2.55731,3.44971 0.43873,2.20092 2.18697,4.04843 3.96734,3.90808 1.78019,0.13991 3.5281,-1.70739 3.96677,-3.90808 0.37487,-2.14332 -0.45337,-2.76377 -2.5573,-3.44971 -0.33722,-0.0967 -0.68672,-0.14308 -1.03586,-0.14075 -0.12482,0.001 -0.24946,0.0116 -0.37361,0.0253 -0.12433,-0.014 -0.24916,-0.0242 -0.37417,-0.0253 z"/><path style="fill:gray;fill-opacity:1;stroke:#000;stroke-width:.79374999;stroke-linecap:square;stroke-linejoin:miter;stroke-miterlimit:4;stroke-dasharray:none;stroke-dashoffset:0;stroke-opacity:1" id="path164189" d="m 682.08117,113.78901 c 0.91986,0.9492 1.75512,1.98035 2.49266,3.07724 0.68351,1.01654 1.29935,2.144 1.34344,3.36817 0.0249,0.69116 -0.135,1.38133 -0.0846,2.07111 0.0252,0.34488 0.10516,0.69066 0.27705,0.99072 0.17189,0.30006 0.44194,0.55171 0.77047,0.65966 0.22103,0.0726 0.46179,0.0784 0.68921,0.0293 0.22741,-0.0491 0.44164,-0.15193 0.6304,-0.28796 0.37751,-0.27205 0.64758,-0.66865 0.86173,-1.08176 0.52388,-1.01062 0.75221,-2.15202 0.83092,-3.28763 0.0787,-1.13561 0.0138,-2.27549 -0.0167,-3.41341 -0.0193,-0.72156 -0.0232,-1.45577 0.17755,-2.14911 0.23128,-0.79874 0.71878,-1.49341 1.15186,-2.20328 0.43309,-0.70988 0.82802,-1.48546 0.83801,-2.31695 0.007,-0.57479 -0.1711,-1.13308 -0.31075,-1.69069 -0.13965,-0.55761 -0.24144,-1.14927 -0.0841,-1.70214 0.10561,-0.371 0.32101,-0.69904 0.51086,-1.03483 0.95093,-1.68188 1.29523,-3.68638 1.02955,-5.600118 -0.26569,-1.91374 -1.12956,-3.730164 -2.39332,-5.191636 -0.0591,-0.06838 -0.11962,-0.136493 -0.19144,-0.191396 -0.0718,-0.0549 -0.15638,-0.09637 -0.24644,-0.104263 -0.0833,-0.0073 -0.16782,0.01471 -0.24093,0.05531 -0.0731,0.0406 -0.13525,0.09915 -0.18648,0.165253 -0.10245,0.132201 -0.16121,0.291958 -0.22941,0.444673 -0.34883,0.781052 -0.96388,1.408741 -1.59109,1.990395 -0.62722,0.581655 -1.28716,1.144393 -1.76597,1.853243 -0.51192,0.757873 -0.79212,1.647778 -0.99797,2.538874 -0.20585,0.8911 -0.34453,1.79879 -0.60719,2.67483 -0.0931,0.31033 -0.2015,0.61605 -0.32481,0.91564 -0.83771,-0.13943 -1.68628,-0.21352 -2.53548,-0.22138 -0.92151,-0.009 -1.84374,0.0609 -2.75357,0.20747 0.83081,0.40874 1.56474,1.01281 2.12562,1.74951 0.68638,0.90154 1.10965,2.00099 1.20503,3.13006 z"/><path style="fill:none;fill-opacity:1;stroke:#000;stroke-width:.79374999;stroke-linecap:butt;stroke-linejoin:miter;stroke-miterlimit:4;stroke-dasharray:none;stroke-opacity:1" id="path164191" d="m 665.98766,127.54111 c 1.45053,0.14024 2.01604,-0.91633 2.5656,-1.36858 1.09913,-0.90452 0.1113,-1.91988 0.23409,-2.39785"/><path id="path164193" d="m 656.79097,107.36883 6.8301,1.80907" style="fill:none;fill-opacity:1;stroke:#fff;stroke-width:.79374999;stroke-linecap:butt;stroke-linejoin:miter;stroke-miterlimit:4;stroke-dasharray:none;stroke-opacity:1"/><path id="path164195" d="m 674.60667,113.78901 c -0.91986,0.9492 -1.75512,1.98035 -2.49266,3.07724 -0.68351,1.01654 -1.29935,2.14401 -1.34344,3.36818 -0.0249,0.69116 0.135,1.38133 0.0846,2.0711 -0.0252,0.34489 -0.10516,0.69066 -0.27704,0.99072 -0.17189,0.30007 -0.44195,0.55171 -0.77047,0.65966 -0.22103,0.0726 -0.46179,0.0784 -0.68921,0.0293 -0.22741,-0.0491 -0.44164,-0.15193 -0.6304,-0.28796 -0.37751,-0.27205 -0.64758,-0.66865 -0.86173,-1.08176 -0.52388,-1.01062 -0.75221,-2.15202 -0.83092,-3.28763 -0.0787,-1.13561 -0.0138,-2.27549 0.0167,-3.41341 0.0193,-0.72156 0.0232,-1.45577 -0.17755,-2.14911 -0.23128,-0.79874 -0.71878,-1.49341 -1.15186,-2.20328 -0.43309,-0.70988 -0.82802,-1.48546 -0.83801,-2.31695 -0.007,-0.57479 0.1711,-1.13308 0.31075,-1.69069 0.13965,-0.55761 0.24144,-1.14927 0.0841,-1.70214 -0.10561,-0.371 -0.32101,-0.69904 -0.51086,-1.03483 -0.95093,-1.68188 -1.29523,-3.68638 -1.02955,-5.600118 0.26569,-1.91374 1.12956,-3.730164 2.39332,-5.191636 0.0591,-0.06838 0.11962,-0.136493 0.19144,-0.191396 0.0718,-0.0549 0.15638,-0.09637 0.24644,-0.104263 0.0833,-0.0073 0.16782,0.01471 0.24093,0.05531 0.0731,0.0406 0.13525,0.09915 0.18648,0.165253 0.10245,0.132201 0.16121,0.291958 0.22941,0.444673 0.34883,0.781052 0.96388,1.408741 1.59109,1.990395 0.62722,0.581655 1.28716,1.144393 1.76597,1.853243 0.51192,0.757873 0.79212,1.647778 0.99797,2.538874 0.20585,0.8911 0.34453,1.79879 0.60719,2.67483 0.093,0.31033 0.2015,0.61605 0.32481,0.91564 0.83771,-0.13943 1.68628,-0.21352 2.53548,-0.22138 0.92151,-0.009 1.84374,0.0609 2.75357,0.20747 -0.83081,0.40874 -1.56474,1.01281 -2.12562,1.74951 -0.68638,0.90154 -1.10965,2.00099 -1.20503,3.13006 z" style="fill:gray;fill-opacity:1;stroke:#000;stroke-width:.79374999;stroke-linecap:square;stroke-linejoin:miter;stroke-miterlimit:4;stroke-dasharray:none;stroke-dashoffset:0;stroke-opacity:1"/><ellipse id="ellipse164197" cx="-685.802" cy="112.941" rx="2.559" ry="2.632" transform="scale(-1,1)" style="fill:#000;fill-opacity:1;stroke:#fc0;stroke-width:.79375005;stroke-linecap:square;stroke-linejoin:miter;stroke-miterlimit:4;stroke-dasharray:none;stroke-dashoffset:0;stroke-opacity:1"/><path id="path164199" d="m 688.09564,109.52895 c -0.51006,-0.66669 -1.32419,-1.09079 -2.16284,-1.12668 -0.79156,-0.0339 -1.5919,0.27667 -2.15345,0.83557" style="fill:none;fill-opacity:1;stroke:#000;stroke-width:.79374993;stroke-linecap:square;stroke-linejoin:miter;stroke-miterlimit:4;stroke-dasharray:none;stroke-dashoffset:0;stroke-opacity:1"/><path style="fill:none;fill-opacity:1;stroke:#000;stroke-width:.79374999;stroke-linecap:square;stroke-linejoin:miter;stroke-miterlimit:4;stroke-dasharray:none;stroke-dashoffset:0;stroke-opacity:1" id="path164201" d="m 688.35038,105.60417 c -0.34291,-0.021 -0.67986,-0.13271 -0.96738,-0.32076 -0.28752,-0.18805 -0.52493,-0.45197 -0.68159,-0.75773 -0.22615,-0.44137 -0.27968,-0.95782 -0.21342,-1.4493 0.0663,-0.49149 0.24657,-0.96132 0.46711,-1.40551 0.52564,-1.05872 1.29001,-1.998073 2.21979,-2.727944"/><path id="path164203" d="m 678.17919,117.2974 0.0935,1.83339 c 0.019,0.37335 0.03,0.75093 -0.0438,1.11741 -0.0738,0.36648 -0.23099,0.71566 -0.4563,1.01397 -0.22531,0.29831 -0.51338,0.54373 -0.81663,0.76235 -0.30325,0.21862 -0.62323,0.41457 -0.91332,0.65037 -0.3976,0.3232 -0.73099,0.71664 -1.07802,1.09362 -0.34704,0.37698 -0.71589,0.74422 -1.16161,0.99696 -0.58472,0.33156 -1.28881,0.44708 -1.94883,0.31976 -0.66001,-0.12733 -1.2706,-0.49647 -1.69003,-1.02174" style="fill:none;fill-opacity:1;stroke:#000;stroke-width:.79374999;stroke-linecap:square;stroke-linejoin:miter;stroke-miterlimit:4;stroke-dasharray:none;stroke-dashoffset:0;stroke-opacity:1"/><path style="fill:gray;fill-opacity:1;stroke:#000;stroke-width:.79374999;stroke-linecap:square;stroke-linejoin:miter;stroke-miterlimit:4;stroke-dasharray:none;stroke-dashoffset:0;stroke-opacity:1" id="path164205" d="m 680.97887,116.32503 c -0.20725,-0.54651 -0.20725,-1.63953 -0.82897,-1.63953 -0.62171,0 -1.19648,-0.40988 -1.808,-0.40988 -0.61152,0 -1.18629,0.40988 -1.80801,0.40988 -0.62172,0 -0.62172,1.09302 -0.82896,1.63953 -0.20725,0.54651 2.63697,2.32265 2.63697,2.32265 0,0 2.84421,-1.77614 2.63697,-2.32265 z"/><ellipse style="fill:#000;fill-opacity:1;stroke:#fc0;stroke-width:.79375005;stroke-linecap:square;stroke-linejoin:miter;stroke-miterlimit:4;stroke-dasharray:none;stroke-dashoffset:0;stroke-opacity:1" id="ellipse164207" cx="670.975" cy="112.941" rx="2.559" ry="2.632"/><ellipse id="ellipse164209" cx="670.121" cy="112.201" rx="1.258" ry="1.311" style="fill:#fff;fill-opacity:1;stroke:none;stroke-width:.79375005;stroke-linecap:square;stroke-linejoin:miter;stroke-miterlimit:4;stroke-dasharray:none;stroke-dashoffset:0;stroke-opacity:1"/><path style="fill:none;fill-opacity:1;stroke:#000;stroke-width:.79374993;stroke-linecap:square;stroke-linejoin:miter;stroke-miterlimit:4;stroke-dasharray:none;stroke-dashoffset:0;stroke-opacity:1" id="path164211" d="m 668.68054,109.52895 c 0.51006,-0.66669 1.32419,-1.09079 2.16284,-1.12668 0.79156,-0.0339 1.5919,0.27667 2.15345,0.83557"/><path id="path164213" d="m 667.89668,105.60417 c 0.34291,-0.021 0.67986,-0.13271 0.96738,-0.32076 0.28752,-0.18805 0.52493,-0.45197 0.68159,-0.75773 0.22615,-0.44137 0.27968,-0.95782 0.21342,-1.4493 -0.0663,-0.49149 -0.24657,-0.96132 -0.46711,-1.40551 -0.52564,-1.05872 -1.29001,-1.998073 -2.21979,-2.727944" style="fill:none;fill-opacity:1;stroke:#000;stroke-width:.79374999;stroke-linecap:square;stroke-linejoin:miter;stroke-miterlimit:4;stroke-dasharray:none;stroke-dashoffset:0;stroke-opacity:1"/><path id="path164215" d="m 678.45158,127.93405 v 3.63912" style="fill:none;fill-opacity:1;stroke:#000;stroke-width:.79375005;stroke-linecap:square;stroke-linejoin:miter;stroke-miterlimit:4;stroke-dasharray:none;stroke-dashoffset:0;stroke-opacity:1"/><path id="path164217" d="m 671.55002,100.46623 c 0,0 -2.51266,1.87089 -3.38243,2.15152 -0.86976,0.28063 -4.44548,0.74835 -4.44548,0.74835 l 0.0966,2.80633 c 0,0 1.54625,0.28064 3.28579,-0.0935 1.73954,-0.37418 14.20621,-0.46772 14.20621,-0.46772" style="fill:#fde385;fill-opacity:1;stroke:#fcc917;stroke-width:.79374993;stroke-linecap:square;stroke-linejoin:miter;stroke-miterlimit:4;stroke-dasharray:none;stroke-dashoffset:0;stroke-opacity:1"/><path style="fill:none;fill-opacity:1;stroke:#fff;stroke-width:.79374999;stroke-linecap:butt;stroke-linejoin:miter;stroke-miterlimit:4;stroke-dasharray:none;stroke-opacity:1" id="path164219" d="m 700.13359,107.36883 -6.8301,1.80907"/><path style="fill:none;fill-opacity:1;stroke:#000;stroke-width:.79374999;stroke-linecap:square;stroke-linejoin:miter;stroke-miterlimit:4;stroke-dasharray:none;stroke-dashoffset:0;stroke-opacity:1" id="path164221" d="m 682.85977,124.87214 c -2.21493,1.35318 -4.81675,1.26558 -4.4536,1.26558 0.36315,0 -2.23867,0.0876 -4.4536,-1.26558"/><path id="path164223" d="m 690.79253,127.7282 c -1.45053,0.14024 -2.01604,-0.91633 -2.5656,-1.36858 -1.09913,-0.90452 -0.1113,-1.91988 -0.23409,-2.39785" style="fill:none;fill-opacity:1;stroke:#000;stroke-width:.79374999;stroke-linecap:butt;stroke-linejoin:miter;stroke-miterlimit:4;stroke-dasharray:none;stroke-opacity:1"/><path id="path164225" d="m 660.77576,124.86583 4.67858,-3.21224" style="fill:none;fill-opacity:1;stroke:#fff;stroke-width:.79374999;stroke-linecap:butt;stroke-linejoin:miter;stroke-miterlimit:4;stroke-dasharray:none;stroke-opacity:1"/><ellipse style="fill:#fff;fill-opacity:1;stroke:none;stroke-width:.79375005;stroke-linecap:square;stroke-linejoin:miter;stroke-miterlimit:4;stroke-dasharray:none;stroke-dashoffset:0;stroke-opacity:1" id="ellipse164227" cx="686.581" cy="112.201" rx="1.258" ry="1.311"/><path id="path164229" d="m 677.59167,116.05505 -0.52917,1.25677" style="fill:none;fill-opacity:1;stroke:#000;stroke-width:.79374999;stroke-linecap:square;stroke-linejoin:miter;stroke-miterlimit:4;stroke-dasharray:none;stroke-dashoffset:0;stroke-opacity:1"/><path style="fill:none;fill-opacity:1;stroke:#000;stroke-width:.79374999;stroke-linecap:square;stroke-linejoin:miter;stroke-miterlimit:4;stroke-dasharray:none;stroke-dashoffset:0;stroke-opacity:1" id="path164231" d="m 679.17915,116.05505 0.52917,1.25677"/><path style="fill:none;fill-opacity:1;stroke:#fff;stroke-width:.79374999;stroke-linecap:butt;stroke-linejoin:miter;stroke-miterlimit:4;stroke-dasharray:none;stroke-opacity:1" id="path164233" d="m 695.61685,124.86583 -4.67858,-3.21224"/><path style="fill:#fde385;fill-opacity:1;stroke:#fcc917;stroke-width:.79374993;stroke-linecap:square;stroke-linejoin:miter;stroke-miterlimit:4;stroke-dasharray:none;stroke-dashoffset:0;stroke-opacity:1" id="path164235" d="m 685.11528,100.46623 c 0,0 2.51266,1.87089 3.38243,2.15152 0.86976,0.28063 4.44548,0.74835 4.44548,0.74835 l -0.0966,2.80633 c 0,0 -1.54625,0.28064 -3.28579,-0.0935 -1.73954,-0.37418 -14.20621,-0.46772 -14.20621,-0.46772"/><path id="path164237" d="m 685.05575,107.26614 5.96227,-0.7956 -9.18023,-1.59078 -8.88926,0.0497 -6.9128,1.24282 3.69017,1.09388 7.66492,0.19883 z" style="fill:#fde385;fill-opacity:1;stroke:#fcc917;stroke-width:.79374999;stroke-linecap:square;stroke-linejoin:miter;stroke-miterlimit:4;stroke-dasharray:none;stroke-dashoffset:0;stroke-opacity:1"/><path id="path164239" d="m 676.81873,99.653466 -2.18282,-0.0661 -1.91823,-2.38125 0.0661,-2.910414 3.16158,-0.842507 c 1.69501,-0.584128 3.19616,-0.406767 4.77192,0 2.72967,0.795783 3.24708,0.842507 3.24708,0.842507 l 0.0661,2.910414 -1.91823,2.38125 -2.18282,0.0661" style="fill:#fcda5d;fill-opacity:1;fill-rule:evenodd;stroke:#fcc917;stroke-width:.79374999;stroke-linecap:butt;stroke-linejoin:miter;stroke-miterlimit:4;stroke-dasharray:none;stroke-opacity:1"/><path style="fill:#fde385;fill-opacity:1;fill-rule:evenodd;stroke:#fcc917;stroke-width:.79374999;stroke-linecap:butt;stroke-linejoin:miter;stroke-miterlimit:4;stroke-dasharray:none;stroke-opacity:1" id="path164241" d="m 681.51475,97.860416 0.46611,-5.424686 -3.46306,-0.577161 -3.46269,0.577161 0.46575,5.424686 2.99695,3.704164 z"/><path style="fill:none;fill-opacity:1;stroke:#000;stroke-width:.79374999;stroke-linecap:square;stroke-linejoin:miter;stroke-miterlimit:4;stroke-dasharray:none;stroke-dashoffset:0;stroke-opacity:1" id="path164243" d="m 678.57794,117.2974 -0.0935,1.83339 c -0.019,0.37335 -0.03,0.75093 0.0438,1.11741 0.0738,0.36648 0.23099,0.71566 0.4563,1.01397 0.22531,0.29831 0.51338,0.54373 0.81663,0.76235 0.30325,0.21862 0.62323,0.41457 0.91332,0.65037 0.3976,0.3232 0.73099,0.71664 1.07802,1.09362 0.34704,0.37698 0.71589,0.74422 1.16161,0.99696 0.58472,0.33156 1.28881,0.44708 1.94883,0.31976 0.66001,-0.12733 1.2706,-0.49647 1.69003,-1.02174"/></g><rect style="opacity:1;fill:none;fill-opacity:1;stroke:#dedede;stroke-width:.79374993;stroke-linecap:round;stroke-linejoin:round;stroke-miterlimit:4;stroke-dasharray:none;stroke-opacity:1" id="rect164274" width="266.435" height="119.894" x="620.001" y="79.602" ry=".261" transform="scale(1,-1)"/></g></svg>